M48
;Layer_Color=9474304
;FILE_FORMAT=4:4
METRIC,LZ
;TYPE=PLATED
T1F00S00C0.3000
T3F00S00C0.7000
T4F00S00C0.8000
T5F00S00C1.0000
T6F00S00C1.1000
%
T01
X00070104Y00062713
X00080264Y00055372
X00081445Y00069939
X00081026Y00118364
X00081116Y00138086
X00067945Y00138176
X00095163Y00133774
X00112522Y0010287
X00054356Y0010922
X00156972Y00131064
X00348488Y00081254
X00440944Y00079756
X00460558Y0006104
X0047498Y00051308
X00504698Y00049501
X00489712Y00072898
X00481838Y00026416
X00440944Y0014224
X00443484Y00157734
X00491236Y00188468
X0038846Y00182866
X0020701Y00172212
X00211595Y0023271
X00233172Y0024257
X0014346Y00156464
X00126149Y00154257
X00129242Y00164127
X00118364Y00148908
X00109908Y0014894
X00101471Y00149098
X00070612Y00252222
X00016256Y00210312
X00141954Y00279114
T03
X00500126Y00248666
Y00299466
T04
X000508Y00026482
Y00046482
T05
X0020626Y0004989
Y0009489
X0027126
Y0004989
X002257Y00219468
X001807
Y00284468
X002257
X000833Y00279802
Y00234802
X000183
Y00279802
T06
X00099314Y00020828
X00124714
X00150114
X00175514
X00200914
X00226314
X00150114Y00307086
X00124714
X00099314
X00073914
X00048514
X00023114
M30
