G04*
G04 #@! TF.GenerationSoftware,Altium Limited,Altium Designer,20.2.4 (192)*
G04*
G04 Layer_Color=16711935*
%FSLAX44Y44*%
%MOMM*%
G71*
G04*
G04 #@! TF.SameCoordinates,04E9AB2E-1989-4D7A-88AA-1D4CDCA67D46*
G04*
G04*
G04 #@! TF.FilePolarity,Negative*
G04*
G01*
G75*
%ADD42R,2.1032X2.1032*%
G04:AMPARAMS|DCode=61|XSize=2.2032mm|YSize=1.4032mm|CornerRadius=0.4616mm|HoleSize=0mm|Usage=FLASHONLY|Rotation=0.000|XOffset=0mm|YOffset=0mm|HoleType=Round|Shape=RoundedRectangle|*
%AMROUNDEDRECTD61*
21,1,2.2032,0.4800,0,0,0.0*
21,1,1.2800,1.4032,0,0,0.0*
1,1,0.9232,0.6400,-0.2400*
1,1,0.9232,-0.6400,-0.2400*
1,1,0.9232,-0.6400,0.2400*
1,1,0.9232,0.6400,0.2400*
%
%ADD61ROUNDEDRECTD61*%
%ADD62C,2.1032*%
%ADD63R,2.1032X2.1032*%
%ADD64C,1.4032*%
%ADD65R,1.8032X2.2032*%
%ADD66O,1.8032X2.2032*%
%ADD67C,1.5112*%
%ADD68R,1.5112X1.5112*%
%ADD69C,0.8032*%
D42*
X180700Y219468D02*
D03*
D61*
X15240Y155366D02*
D03*
Y89366D02*
D03*
D62*
X271260Y94890D02*
D03*
X206260D02*
D03*
Y49890D02*
D03*
X18300Y234802D02*
D03*
X83300D02*
D03*
Y279802D02*
D03*
X225700Y219468D02*
D03*
Y284468D02*
D03*
X180700D02*
D03*
D63*
X271260Y49890D02*
D03*
X18300Y279802D02*
D03*
D64*
X500126Y248666D02*
D03*
Y299466D02*
D03*
D65*
X23114Y307086D02*
D03*
X226314Y20828D02*
D03*
D66*
X48514Y307086D02*
D03*
X73914D02*
D03*
X99314D02*
D03*
X124714D02*
D03*
X150114D02*
D03*
X200914Y20828D02*
D03*
X175514D02*
D03*
X150114D02*
D03*
X124714D02*
D03*
X99314D02*
D03*
D67*
X50800Y26482D02*
D03*
D68*
Y46482D02*
D03*
D69*
X70612Y252222D02*
D03*
X233172Y242570D02*
D03*
X211595Y232710D02*
D03*
X16256Y210312D02*
D03*
X54356Y109220D02*
D03*
X67945Y138176D02*
D03*
X81445Y69939D02*
D03*
X70104Y62713D02*
D03*
X141954Y279114D02*
D03*
X81116Y138086D02*
D03*
X81026Y118364D02*
D03*
X207010Y172212D02*
D03*
X481838Y26416D02*
D03*
X474980Y51308D02*
D03*
X504698Y49501D02*
D03*
X80264Y55372D02*
D03*
X489712Y72898D02*
D03*
X460558Y61040D02*
D03*
X348488Y81254D02*
D03*
X388460Y182866D02*
D03*
X491236Y188468D02*
D03*
X440944Y79756D02*
D03*
X112522Y102870D02*
D03*
X443484Y157734D02*
D03*
X126149Y154257D02*
D03*
X143460Y156464D02*
D03*
X129242Y164127D02*
D03*
X118364Y148908D02*
D03*
X109908Y148940D02*
D03*
X95163Y133774D02*
D03*
X440944Y142240D02*
D03*
X101471Y149098D02*
D03*
X156972Y131064D02*
D03*
M02*
