G04*
G04 #@! TF.GenerationSoftware,Altium Limited,Altium Designer,20.2.4 (192)*
G04*
G04 Layer_Physical_Order=2*
G04 Layer_Color=16711680*
%FSLAX44Y44*%
%MOMM*%
G71*
G04*
G04 #@! TF.SameCoordinates,04E9AB2E-1989-4D7A-88AA-1D4CDCA67D46*
G04*
G04*
G04 #@! TF.FilePolarity,Positive*
G04*
G01*
G75*
%ADD16C,0.2540*%
%ADD21R,1.9000X1.9000*%
%ADD72C,0.5000*%
G04:AMPARAMS|DCode=73|XSize=2mm|YSize=1.2mm|CornerRadius=0.36mm|HoleSize=0mm|Usage=FLASHONLY|Rotation=0.000|XOffset=0mm|YOffset=0mm|HoleType=Round|Shape=RoundedRectangle|*
%AMROUNDEDRECTD73*
21,1,2.0000,0.4800,0,0,0.0*
21,1,1.2800,1.2000,0,0,0.0*
1,1,0.7200,0.6400,-0.2400*
1,1,0.7200,-0.6400,-0.2400*
1,1,0.7200,-0.6400,0.2400*
1,1,0.7200,0.6400,0.2400*
%
%ADD73ROUNDEDRECTD73*%
%ADD74C,1.9000*%
%ADD75R,1.9000X1.9000*%
%ADD76C,1.2000*%
%ADD77R,1.6000X2.0000*%
%ADD78O,1.6000X2.0000*%
%ADD79C,1.3080*%
%ADD80R,1.3080X1.3080*%
%ADD81C,0.6000*%
G36*
X275082Y251714D02*
X274116Y250980D01*
X173219D01*
X145875Y278324D01*
X146032Y279114D01*
X145722Y280675D01*
X144838Y281998D01*
X143515Y282882D01*
X141954Y283192D01*
X140393Y282882D01*
X139070Y281998D01*
X138186Y280675D01*
X138162Y280556D01*
X136784Y280138D01*
X123524Y293399D01*
X124086Y294538D01*
X124714Y294455D01*
X127465Y294817D01*
X130029Y295879D01*
X132231Y297569D01*
X133921Y299771D01*
X134983Y302334D01*
X135345Y305086D01*
Y305816D01*
X124714D01*
Y308356D01*
X135345D01*
Y309086D01*
X134983Y311838D01*
X133921Y314401D01*
X133587Y314837D01*
X134148Y315976D01*
X142456D01*
X143082Y314706D01*
X142253Y313625D01*
X141346Y311436D01*
X141036Y309086D01*
Y305086D01*
X141346Y302736D01*
X142253Y300547D01*
X143695Y298667D01*
X145575Y297225D01*
X147765Y296318D01*
X150114Y296008D01*
X152464Y296318D01*
X154653Y297225D01*
X156533Y298667D01*
X157976Y300547D01*
X158882Y302736D01*
X159192Y305086D01*
Y309086D01*
X158882Y311436D01*
X157976Y313625D01*
X157146Y314706D01*
X157772Y315976D01*
X275082D01*
Y251714D01*
D02*
G37*
G36*
X41482Y314706D02*
X40652Y313625D01*
X39746Y311436D01*
X39436Y309086D01*
Y305086D01*
X39746Y302736D01*
X40652Y300547D01*
X42095Y298667D01*
X43975Y297225D01*
X46164Y296318D01*
X46199Y296313D01*
Y181777D01*
X46376Y180891D01*
X46877Y180140D01*
X91510Y135508D01*
X91395Y135335D01*
X91085Y133774D01*
X91395Y132214D01*
X92279Y130891D01*
X93602Y130007D01*
X94479Y129832D01*
X115068Y109243D01*
X114362Y108153D01*
X113792Y108266D01*
Y104140D01*
X117918D01*
X117804Y104710D01*
X118895Y105416D01*
X122400Y101911D01*
Y31601D01*
X122365Y31596D01*
X120175Y30689D01*
X118295Y29247D01*
X116853Y27367D01*
X115946Y25178D01*
X115636Y22828D01*
Y18828D01*
X115946Y16479D01*
X116853Y14289D01*
X118295Y12409D01*
X120175Y10967D01*
X122365Y10060D01*
X124714Y9750D01*
X127064Y10060D01*
X129253Y10967D01*
X131133Y12409D01*
X132576Y14289D01*
X133482Y16479D01*
X133792Y18828D01*
Y22828D01*
X133482Y25178D01*
X132576Y27367D01*
X131133Y29247D01*
X129253Y30689D01*
X127064Y31596D01*
X127029Y31601D01*
Y102870D01*
X126852Y103756D01*
X126351Y104507D01*
X98816Y132041D01*
X98931Y132214D01*
X99241Y133774D01*
X99115Y134408D01*
X100286Y135034D01*
X144243Y91076D01*
Y30026D01*
X144305Y29715D01*
X143695Y29247D01*
X142253Y27367D01*
X141346Y25178D01*
X141036Y22828D01*
Y18828D01*
X141346Y16479D01*
X142253Y14289D01*
X143695Y12409D01*
X145575Y10967D01*
X147765Y10060D01*
X150114Y9750D01*
X152464Y10060D01*
X154653Y10967D01*
X156533Y12409D01*
X157976Y14289D01*
X158882Y16479D01*
X159192Y18828D01*
Y22828D01*
X158882Y25178D01*
X157976Y27367D01*
X156533Y29247D01*
X154653Y30689D01*
X152464Y31596D01*
X150114Y31906D01*
X149827Y31868D01*
X148872Y32705D01*
Y70223D01*
X150046Y70709D01*
X173200Y47555D01*
Y31601D01*
X173165Y31596D01*
X170975Y30689D01*
X169095Y29247D01*
X167652Y27367D01*
X166746Y25178D01*
X166436Y22828D01*
Y18828D01*
X166746Y16479D01*
X167652Y14289D01*
X169095Y12409D01*
X170975Y10967D01*
X173165Y10060D01*
X175514Y9750D01*
X177864Y10060D01*
X180053Y10967D01*
X181933Y12409D01*
X183375Y14289D01*
X184282Y16479D01*
X184592Y18828D01*
Y22828D01*
X184282Y25178D01*
X183375Y27367D01*
X181933Y29247D01*
X180053Y30689D01*
X177864Y31596D01*
X177829Y31601D01*
Y46972D01*
X179098Y47498D01*
X195205Y31392D01*
X195094Y29706D01*
X194495Y29247D01*
X193053Y27367D01*
X192146Y25178D01*
X191836Y22828D01*
Y18828D01*
X192146Y16479D01*
X193053Y14289D01*
X194495Y12409D01*
X196375Y10967D01*
X198564Y10060D01*
X200914Y9750D01*
X203263Y10060D01*
X205453Y10967D01*
X207333Y12409D01*
X208776Y14289D01*
X209682Y16479D01*
X209992Y18828D01*
Y22828D01*
X209682Y25178D01*
X208776Y27367D01*
X207333Y29247D01*
X205453Y30689D01*
X204733Y30988D01*
X204961Y32229D01*
X213639D01*
X217314Y28555D01*
Y9828D01*
X235314D01*
Y31828D01*
X220587D01*
X216235Y36181D01*
X215484Y36682D01*
X214598Y36858D01*
X209246D01*
X209163Y38128D01*
X209403Y38160D01*
X212332Y39373D01*
X214847Y41303D01*
X216777Y43818D01*
X217990Y46747D01*
X218237Y48620D01*
X206260D01*
Y49890D01*
X204990D01*
Y61867D01*
X203117Y61620D01*
X200188Y60407D01*
X197673Y58477D01*
X195743Y55962D01*
X194530Y53033D01*
X194182Y50392D01*
X192906Y49872D01*
X159493Y83286D01*
Y127937D01*
X159856Y128180D01*
X160740Y129503D01*
X161050Y131064D01*
X160740Y132625D01*
X159856Y133948D01*
X158533Y134832D01*
X156972Y135142D01*
X155411Y134832D01*
X154088Y133948D01*
X153204Y132625D01*
X152894Y131064D01*
X153204Y129503D01*
X154088Y128180D01*
X154864Y127662D01*
Y104577D01*
X153690Y104091D01*
X113068Y144713D01*
X112792Y146056D01*
X113420Y146996D01*
X113606Y147052D01*
X114706Y147037D01*
X114831Y146996D01*
X115480Y146024D01*
X116803Y145140D01*
X118364Y144830D01*
X119925Y145140D01*
X121248Y146024D01*
X121628Y146594D01*
X129153D01*
X135143Y140603D01*
X135894Y140102D01*
X136780Y139925D01*
X437680D01*
X438060Y139356D01*
X439383Y138472D01*
X440944Y138162D01*
X442505Y138472D01*
X443828Y139356D01*
X444712Y140679D01*
X445022Y142240D01*
X444712Y143801D01*
X443828Y145124D01*
X442505Y146008D01*
X440944Y146318D01*
X439383Y146008D01*
X438060Y145124D01*
X437680Y144555D01*
X137739D01*
X133258Y149035D01*
X138601Y154377D01*
X140185Y154166D01*
X140576Y153580D01*
X141900Y152696D01*
X143460Y152386D01*
X145021Y152696D01*
X146344Y153580D01*
X146725Y154150D01*
X441278D01*
X441564Y154206D01*
X441923Y153966D01*
X443484Y153656D01*
X445045Y153966D01*
X446368Y154850D01*
X447252Y156173D01*
X447562Y157734D01*
X447252Y159295D01*
X446368Y160618D01*
X445045Y161502D01*
X443484Y161812D01*
X441923Y161502D01*
X440600Y160618D01*
X439716Y159295D01*
X439613Y158778D01*
X146725D01*
X146344Y159348D01*
X145021Y160232D01*
X143460Y160542D01*
X141900Y160232D01*
X141637Y160056D01*
X140367Y160735D01*
Y264803D01*
X141540Y265289D01*
X174148Y232682D01*
X173662Y231508D01*
X168660D01*
Y220738D01*
X180700D01*
X192740D01*
Y229141D01*
X208026D01*
Y178545D01*
X205463Y175983D01*
X205449Y175980D01*
X204126Y175096D01*
X203242Y173773D01*
X202932Y172212D01*
X203242Y170651D01*
X204126Y169328D01*
X205449Y168444D01*
X207010Y168134D01*
X208571Y168444D01*
X209894Y169328D01*
X210778Y170651D01*
X210915Y171341D01*
X214118Y174544D01*
X214891Y175702D01*
X215163Y177067D01*
Y214149D01*
X216433Y214402D01*
X216528Y214173D01*
X218211Y211980D01*
X220404Y210296D01*
X222959Y209238D01*
X225700Y208878D01*
X228441Y209238D01*
X230995Y210296D01*
X233188Y211980D01*
X234872Y214173D01*
X235930Y216727D01*
X236290Y219468D01*
X235930Y222209D01*
X234872Y224764D01*
X233188Y226957D01*
X230995Y228640D01*
X228441Y229698D01*
X225700Y230059D01*
X222959Y229698D01*
X220404Y228640D01*
X218211Y226957D01*
X216528Y224764D01*
X216433Y224534D01*
X215163Y224787D01*
Y230851D01*
X215362Y231149D01*
X215673Y232710D01*
X215362Y234271D01*
X214478Y235594D01*
X213155Y236478D01*
X211595Y236788D01*
X210034Y236478D01*
X209736Y236278D01*
X180644D01*
X171768Y245155D01*
X172159Y246105D01*
X172367Y246352D01*
X227689D01*
X228288Y245231D01*
X227953Y244732D01*
X227776Y243840D01*
X238568D01*
X238391Y244732D01*
X238057Y245231D01*
X238655Y246352D01*
X493508D01*
X494011Y245136D01*
X495134Y243674D01*
X496596Y242551D01*
X498299Y241846D01*
X500126Y241606D01*
X501953Y241846D01*
X503656Y242551D01*
X505118Y243674D01*
X506241Y245136D01*
X506946Y246839D01*
X507186Y248666D01*
X507019Y249936D01*
X507889Y251206D01*
X520700D01*
Y5098D01*
X519610Y4392D01*
X519176Y4826D01*
X1524D01*
Y85764D01*
X2794Y85889D01*
X3056Y84570D01*
X4413Y82539D01*
X6444Y81182D01*
X8840Y80706D01*
X13970D01*
Y89366D01*
Y98026D01*
X8840D01*
X6444Y97550D01*
X4413Y96193D01*
X3056Y94162D01*
X2794Y92843D01*
X1524Y92968D01*
Y151764D01*
X2794Y151889D01*
X3056Y150570D01*
X4413Y148539D01*
X6444Y147182D01*
X8840Y146706D01*
X13970D01*
Y155366D01*
Y164026D01*
X8840D01*
X6444Y163550D01*
X4413Y162193D01*
X3056Y160162D01*
X2794Y158843D01*
X1524Y158968D01*
Y315976D01*
X14114D01*
Y296086D01*
X27067D01*
X30041Y293112D01*
X29515Y291842D01*
X29506Y291842D01*
Y291842D01*
X29416Y291842D01*
X19570D01*
Y281072D01*
X30340D01*
X30340Y290914D01*
Y291007D01*
D01*
X30340Y291017D01*
X30465Y291069D01*
X31610Y291543D01*
X36563Y286590D01*
Y209810D01*
X35293Y209424D01*
X35035Y209811D01*
X32106Y212740D01*
X30949Y213513D01*
X29583Y213785D01*
X18258D01*
X17817Y214080D01*
X16256Y214390D01*
X14695Y214080D01*
X13372Y213196D01*
X12488Y211873D01*
X12178Y210312D01*
X12488Y208751D01*
X13372Y207428D01*
X14695Y206544D01*
X16256Y206234D01*
X17817Y206544D01*
X17972Y206648D01*
X28105D01*
X28943Y205809D01*
Y159032D01*
X27673Y158907D01*
X27424Y160162D01*
X26067Y162193D01*
X24036Y163550D01*
X21640Y164026D01*
X16510D01*
Y155366D01*
Y146706D01*
X21640D01*
X24036Y147182D01*
X26067Y148539D01*
X27424Y150570D01*
X27673Y151825D01*
X28943Y151700D01*
Y93032D01*
X27673Y92907D01*
X27424Y94162D01*
X26067Y96193D01*
X24036Y97550D01*
X21640Y98026D01*
X16510D01*
Y89366D01*
Y80706D01*
X21640D01*
X24036Y81182D01*
X26067Y82539D01*
X27424Y84570D01*
X27900Y86966D01*
Y87888D01*
X29170Y88013D01*
X29215Y87788D01*
X29989Y86631D01*
X36055Y80564D01*
Y78232D01*
X36327Y76866D01*
X37101Y75709D01*
X47231Y65578D01*
Y54022D01*
X43260D01*
Y38942D01*
X58340D01*
Y54022D01*
X54369D01*
Y67056D01*
X54097Y68422D01*
X53323Y69579D01*
X43193Y79710D01*
Y82042D01*
X43009Y82966D01*
X44179Y83591D01*
X66266Y61505D01*
X66336Y61153D01*
X67220Y59830D01*
X68543Y58945D01*
X70104Y58635D01*
X71665Y58945D01*
X72988Y59830D01*
X73872Y61153D01*
X74182Y62713D01*
X73872Y64274D01*
X72988Y65597D01*
X71665Y66481D01*
X71313Y66551D01*
X43701Y94164D01*
Y288068D01*
X43429Y289434D01*
X42655Y290591D01*
X32114Y301133D01*
Y313039D01*
X35051Y315976D01*
X40856D01*
X41482Y314706D01*
D02*
G37*
G36*
X66882D02*
X66052Y313625D01*
X65146Y311436D01*
X64836Y309086D01*
Y305086D01*
X65146Y302736D01*
X66052Y300547D01*
X67495Y298667D01*
X69375Y297225D01*
X71564Y296318D01*
X73914Y296008D01*
X76263Y296318D01*
X78453Y297225D01*
X78903Y297570D01*
X83318Y293155D01*
X82798Y291880D01*
X80157Y291532D01*
X77228Y290319D01*
X74713Y288389D01*
X72783Y285874D01*
X71570Y282945D01*
X71323Y281072D01*
X83300D01*
Y279802D01*
X84570D01*
Y267825D01*
X86443Y268072D01*
X89372Y269285D01*
X91887Y271215D01*
X93817Y273730D01*
X95030Y276659D01*
X95378Y279300D01*
X96653Y279820D01*
X132198Y244276D01*
Y168491D01*
X130928Y167812D01*
X130803Y167895D01*
X129242Y168206D01*
X127682Y167895D01*
X126359Y167011D01*
X125978Y166442D01*
X109048D01*
X108162Y166266D01*
X107411Y165764D01*
X94565Y152917D01*
X94063Y152167D01*
X93887Y151281D01*
Y142392D01*
X94063Y141506D01*
X94483Y140877D01*
X93497Y140068D01*
X50828Y182736D01*
Y296313D01*
X50863Y296318D01*
X53053Y297225D01*
X54933Y298667D01*
X56375Y300547D01*
X57282Y302736D01*
X57592Y305086D01*
Y309086D01*
X57282Y311436D01*
X56375Y313625D01*
X55546Y314706D01*
X56172Y315976D01*
X66256D01*
X66882Y314706D01*
D02*
G37*
%LPC*%
G36*
X181970Y296444D02*
Y285738D01*
X192677D01*
X192430Y287611D01*
X191217Y290540D01*
X189287Y293055D01*
X186772Y294985D01*
X183843Y296198D01*
X181970Y296444D01*
D02*
G37*
G36*
X179430D02*
X177557Y296198D01*
X174628Y294985D01*
X172113Y293055D01*
X170183Y290540D01*
X168970Y287611D01*
X168724Y285738D01*
X179430D01*
Y296444D01*
D02*
G37*
G36*
X225700Y295058D02*
X222959Y294697D01*
X220404Y293640D01*
X218211Y291957D01*
X216528Y289763D01*
X215470Y287209D01*
X215109Y284468D01*
X215470Y281727D01*
X216528Y279172D01*
X218211Y276979D01*
X220404Y275296D01*
X222959Y274238D01*
X225700Y273877D01*
X228441Y274238D01*
X230995Y275296D01*
X233188Y276979D01*
X234872Y279172D01*
X235930Y281727D01*
X236290Y284468D01*
X235930Y287209D01*
X234872Y289763D01*
X233188Y291957D01*
X230995Y293640D01*
X228441Y294697D01*
X225700Y295058D01*
D02*
G37*
G36*
X192677Y283198D02*
X181970D01*
Y272491D01*
X183843Y272738D01*
X186772Y273951D01*
X189287Y275881D01*
X191217Y278396D01*
X192430Y281325D01*
X192677Y283198D01*
D02*
G37*
G36*
X179430D02*
X168724D01*
X168970Y281325D01*
X170183Y278396D01*
X172113Y275881D01*
X174628Y273951D01*
X177557Y272738D01*
X179430Y272491D01*
Y283198D01*
D02*
G37*
G36*
X17030Y291842D02*
X6260D01*
Y281072D01*
X17030D01*
Y291842D01*
D02*
G37*
G36*
X30340Y278532D02*
X19570D01*
Y267762D01*
X30340D01*
Y278532D01*
D02*
G37*
G36*
X17030D02*
X6260D01*
Y267762D01*
X17030D01*
Y278532D01*
D02*
G37*
G36*
X238568Y241300D02*
X234442D01*
Y237174D01*
X235334Y237351D01*
X237166Y238576D01*
X238391Y240408D01*
X238568Y241300D01*
D02*
G37*
G36*
X231902D02*
X227776D01*
X227953Y240408D01*
X229178Y238576D01*
X231010Y237351D01*
X231902Y237174D01*
Y241300D01*
D02*
G37*
G36*
X18300Y245393D02*
X15559Y245032D01*
X13005Y243974D01*
X10812Y242291D01*
X9129Y240098D01*
X8070Y237543D01*
X7710Y234802D01*
X8070Y232061D01*
X9129Y229507D01*
X10812Y227313D01*
X13005Y225630D01*
X15559Y224572D01*
X18300Y224212D01*
X21041Y224572D01*
X23595Y225630D01*
X25789Y227313D01*
X27472Y229507D01*
X28530Y232061D01*
X28891Y234802D01*
X28530Y237543D01*
X27472Y240098D01*
X25789Y242291D01*
X23595Y243974D01*
X21041Y245032D01*
X18300Y245393D01*
D02*
G37*
G36*
X192740Y218198D02*
X181970D01*
Y207428D01*
X192740D01*
Y218198D01*
D02*
G37*
G36*
X179430D02*
X168660D01*
Y207428D01*
X179430D01*
Y218198D01*
D02*
G37*
G36*
X492506Y193864D02*
Y189738D01*
X496632D01*
X496455Y190630D01*
X495230Y192462D01*
X493398Y193687D01*
X492506Y193864D01*
D02*
G37*
G36*
X489966D02*
X489074Y193687D01*
X487242Y192462D01*
X486017Y190630D01*
X485840Y189738D01*
X489966D01*
Y193864D01*
D02*
G37*
G36*
X389730Y188262D02*
Y184136D01*
X393856D01*
X393679Y185027D01*
X392454Y186860D01*
X390622Y188084D01*
X389730Y188262D01*
D02*
G37*
G36*
X387190D02*
X386298Y188084D01*
X384466Y186860D01*
X383241Y185027D01*
X383064Y184136D01*
X387190D01*
Y188262D01*
D02*
G37*
G36*
X496632Y187198D02*
X492506D01*
Y183072D01*
X493398Y183249D01*
X495230Y184474D01*
X496455Y186306D01*
X496632Y187198D01*
D02*
G37*
G36*
X489966D02*
X485840D01*
X486017Y186306D01*
X487242Y184474D01*
X489074Y183249D01*
X489966Y183072D01*
Y187198D01*
D02*
G37*
G36*
X393856Y181596D02*
X389730D01*
Y177470D01*
X390622Y177647D01*
X392454Y178872D01*
X393679Y180704D01*
X393856Y181596D01*
D02*
G37*
G36*
X387190D02*
X383064D01*
X383241Y180704D01*
X384466Y178872D01*
X386298Y177647D01*
X387190Y177470D01*
Y181596D01*
D02*
G37*
G36*
X69215Y143572D02*
Y139446D01*
X73341D01*
X73164Y140338D01*
X71939Y142170D01*
X70107Y143395D01*
X69215Y143572D01*
D02*
G37*
G36*
X66675D02*
X65783Y143395D01*
X63951Y142170D01*
X62726Y140338D01*
X62549Y139446D01*
X66675D01*
Y143572D01*
D02*
G37*
G36*
X81116Y142164D02*
X79555Y141854D01*
X78232Y140970D01*
X77348Y139647D01*
X77038Y138086D01*
X77171Y137415D01*
X71261Y131505D01*
X70760Y130754D01*
X70584Y129868D01*
Y117602D01*
X70760Y116716D01*
X70823Y116621D01*
Y78246D01*
X70999Y77361D01*
X71501Y76610D01*
X77500Y70610D01*
X77367Y69939D01*
X77677Y68378D01*
X78561Y67055D01*
X79884Y66171D01*
X81445Y65861D01*
X83006Y66171D01*
X84329Y67055D01*
X85213Y68378D01*
X85524Y69939D01*
X85213Y71500D01*
X84329Y72823D01*
X83006Y73707D01*
X81445Y74017D01*
X80773Y73884D01*
X75452Y79205D01*
Y117362D01*
X75276Y118248D01*
X75212Y118343D01*
Y128910D01*
X80444Y134141D01*
X81116Y134008D01*
X82677Y134318D01*
X84000Y135202D01*
X84884Y136525D01*
X85194Y138086D01*
X84884Y139647D01*
X84000Y140970D01*
X82677Y141854D01*
X81116Y142164D01*
D02*
G37*
G36*
X73341Y136906D02*
X69215D01*
Y132780D01*
X70107Y132957D01*
X71939Y134182D01*
X73164Y136014D01*
X73341Y136906D01*
D02*
G37*
G36*
X66675D02*
X62549D01*
X62726Y136014D01*
X63951Y134182D01*
X65783Y132957D01*
X66675Y132780D01*
Y136906D01*
D02*
G37*
G36*
X55626Y114616D02*
Y110490D01*
X59752D01*
X59575Y111382D01*
X58350Y113214D01*
X56518Y114439D01*
X55626Y114616D01*
D02*
G37*
G36*
X53086D02*
X52194Y114439D01*
X50362Y113214D01*
X49137Y111382D01*
X48960Y110490D01*
X53086D01*
Y114616D01*
D02*
G37*
G36*
X111252Y108266D02*
X110360Y108089D01*
X108528Y106864D01*
X107303Y105032D01*
X107126Y104140D01*
X111252D01*
Y108266D01*
D02*
G37*
G36*
X59752Y107950D02*
X55626D01*
Y103824D01*
X56518Y104001D01*
X58350Y105226D01*
X59575Y107058D01*
X59752Y107950D01*
D02*
G37*
G36*
X53086D02*
X48960D01*
X49137Y107058D01*
X50362Y105226D01*
X52194Y104001D01*
X53086Y103824D01*
Y107950D01*
D02*
G37*
G36*
X117918Y101600D02*
X113792D01*
Y97474D01*
X114684Y97651D01*
X116516Y98876D01*
X117741Y100708D01*
X117918Y101600D01*
D02*
G37*
G36*
X111252D02*
X107126D01*
X107303Y100708D01*
X108528Y98876D01*
X110360Y97651D01*
X111252Y97474D01*
Y101600D01*
D02*
G37*
G36*
X271260Y105480D02*
X268519Y105120D01*
X265965Y104061D01*
X263771Y102379D01*
X262088Y100185D01*
X261030Y97631D01*
X260974Y97204D01*
X216546D01*
X216490Y97631D01*
X215432Y100185D01*
X213749Y102379D01*
X211556Y104061D01*
X209001Y105120D01*
X206260Y105480D01*
X203519Y105120D01*
X200965Y104061D01*
X198771Y102379D01*
X197089Y100185D01*
X196031Y97631D01*
X195670Y94890D01*
X196031Y92149D01*
X197089Y89594D01*
X198771Y87401D01*
X200965Y85718D01*
X203519Y84660D01*
X206260Y84299D01*
X209001Y84660D01*
X211556Y85718D01*
X213749Y87401D01*
X215432Y89594D01*
X216490Y92149D01*
X216546Y92575D01*
X260974D01*
X261030Y92149D01*
X262088Y89594D01*
X263771Y87401D01*
X265965Y85718D01*
X268519Y84660D01*
X271260Y84299D01*
X274001Y84660D01*
X276555Y85718D01*
X278748Y87401D01*
X280431Y89594D01*
X281490Y92149D01*
X281850Y94890D01*
X281490Y97631D01*
X280431Y100185D01*
X278748Y102379D01*
X276555Y104061D01*
X274001Y105120D01*
X271260Y105480D01*
D02*
G37*
G36*
X349758Y86650D02*
Y82524D01*
X353884D01*
X353707Y83416D01*
X352482Y85248D01*
X350650Y86473D01*
X349758Y86650D01*
D02*
G37*
G36*
X347218D02*
X346326Y86473D01*
X344494Y85248D01*
X343269Y83416D01*
X343092Y82524D01*
X347218D01*
Y86650D01*
D02*
G37*
G36*
X353884Y79984D02*
X349758D01*
Y75858D01*
X350650Y76035D01*
X352482Y77260D01*
X353707Y79092D01*
X353884Y79984D01*
D02*
G37*
G36*
X347218D02*
X343092D01*
X343269Y79092D01*
X344494Y77260D01*
X346326Y76035D01*
X347218Y75858D01*
Y79984D01*
D02*
G37*
G36*
X490982Y78294D02*
Y74168D01*
X495108D01*
X494931Y75060D01*
X493706Y76892D01*
X491874Y78117D01*
X490982Y78294D01*
D02*
G37*
G36*
X488442D02*
X487550Y78117D01*
X485718Y76892D01*
X484493Y75060D01*
X484316Y74168D01*
X488442D01*
Y78294D01*
D02*
G37*
G36*
X495108Y71628D02*
X490982D01*
Y67502D01*
X491874Y67679D01*
X493706Y68904D01*
X494931Y70736D01*
X495108Y71628D01*
D02*
G37*
G36*
X488442D02*
X484316D01*
X484493Y70736D01*
X485718Y68904D01*
X487550Y67679D01*
X488442Y67502D01*
Y71628D01*
D02*
G37*
G36*
X461828Y66436D02*
Y62310D01*
X465954D01*
X465776Y63202D01*
X464552Y65034D01*
X462719Y66259D01*
X461828Y66436D01*
D02*
G37*
G36*
X459288D02*
X458396Y66259D01*
X456564Y65034D01*
X455339Y63202D01*
X455162Y62310D01*
X459288D01*
Y66436D01*
D02*
G37*
G36*
X81534Y60768D02*
Y56642D01*
X85660D01*
X85483Y57534D01*
X84258Y59366D01*
X82426Y60591D01*
X81534Y60768D01*
D02*
G37*
G36*
X78994D02*
X78102Y60591D01*
X76270Y59366D01*
X75045Y57534D01*
X74868Y56642D01*
X78994D01*
Y60768D01*
D02*
G37*
G36*
X283300Y61930D02*
X272530D01*
Y51160D01*
X283300D01*
Y61930D01*
D02*
G37*
G36*
X207530Y61867D02*
Y51160D01*
X218237D01*
X217990Y53033D01*
X216777Y55962D01*
X214847Y58477D01*
X212332Y60407D01*
X209403Y61620D01*
X207530Y61867D01*
D02*
G37*
G36*
X269990Y61930D02*
X259220D01*
Y51160D01*
X269990D01*
Y61930D01*
D02*
G37*
G36*
X505968Y54897D02*
Y50771D01*
X510094D01*
X509917Y51663D01*
X508692Y53495D01*
X506860Y54719D01*
X505968Y54897D01*
D02*
G37*
G36*
X503428D02*
X502536Y54719D01*
X500704Y53495D01*
X499479Y51663D01*
X499302Y50771D01*
X503428D01*
Y54897D01*
D02*
G37*
G36*
X85660Y54102D02*
X81534D01*
Y49976D01*
X82426Y50153D01*
X84258Y51378D01*
X85483Y53210D01*
X85660Y54102D01*
D02*
G37*
G36*
X78994D02*
X74868D01*
X75045Y53210D01*
X76270Y51378D01*
X78102Y50153D01*
X78994Y49976D01*
Y54102D01*
D02*
G37*
G36*
X510094Y48231D02*
X505968D01*
Y44105D01*
X506860Y44282D01*
X508692Y45507D01*
X509917Y47339D01*
X510094Y48231D01*
D02*
G37*
G36*
X503428D02*
X499302D01*
X499479Y47339D01*
X500704Y45507D01*
X502536Y44282D01*
X503428Y44105D01*
Y48231D01*
D02*
G37*
G36*
X283300Y48620D02*
X272530D01*
Y37850D01*
X283300D01*
Y48620D01*
D02*
G37*
G36*
X269990D02*
X259220D01*
Y37850D01*
X269990D01*
Y48620D01*
D02*
G37*
G36*
X52070Y35473D02*
Y27752D01*
X59791D01*
X59646Y28852D01*
X58731Y31061D01*
X57276Y32958D01*
X55379Y34413D01*
X53170Y35328D01*
X52070Y35473D01*
D02*
G37*
G36*
X49530D02*
X48430Y35328D01*
X46221Y34413D01*
X44324Y32958D01*
X42869Y31061D01*
X41954Y28852D01*
X41809Y27752D01*
X49530D01*
Y35473D01*
D02*
G37*
G36*
X440944Y83834D02*
X439383Y83524D01*
X438060Y82640D01*
X437176Y81317D01*
X436866Y79756D01*
X437176Y78195D01*
X437375Y77897D01*
Y58928D01*
X437647Y57562D01*
X438421Y56405D01*
X446041Y48785D01*
X447198Y48011D01*
X448564Y47739D01*
X471411D01*
Y45720D01*
X471683Y44354D01*
X472457Y43197D01*
X478269Y37384D01*
Y28275D01*
X478070Y27977D01*
X477760Y26416D01*
X478070Y24855D01*
X478954Y23532D01*
X480277Y22648D01*
X481838Y22338D01*
X483399Y22648D01*
X484722Y23532D01*
X485606Y24855D01*
X485916Y26416D01*
X485606Y27977D01*
X485407Y28275D01*
Y38862D01*
X485135Y40228D01*
X484361Y41385D01*
X478549Y47198D01*
Y49449D01*
X478748Y49747D01*
X479058Y51308D01*
X478748Y52869D01*
X477864Y54192D01*
X476541Y55076D01*
X474980Y55386D01*
X473419Y55076D01*
X473121Y54877D01*
X463591D01*
X463206Y56147D01*
X464552Y57046D01*
X465776Y58879D01*
X465954Y59770D01*
X455162D01*
X455339Y58879D01*
X456564Y57046D01*
X457910Y56147D01*
X457525Y54877D01*
X450042D01*
X444513Y60406D01*
Y77897D01*
X444712Y78195D01*
X445022Y79756D01*
X444712Y81317D01*
X443828Y82640D01*
X442505Y83524D01*
X440944Y83834D01*
D02*
G37*
G36*
X59791Y25212D02*
X52070D01*
Y17491D01*
X53170Y17636D01*
X55379Y18551D01*
X57276Y20006D01*
X58731Y21903D01*
X59646Y24112D01*
X59791Y25212D01*
D02*
G37*
G36*
X49530D02*
X41809D01*
X41954Y24112D01*
X42869Y21903D01*
X44324Y20006D01*
X46221Y18551D01*
X48430Y17636D01*
X49530Y17491D01*
Y25212D01*
D02*
G37*
G36*
X81026Y122442D02*
X79465Y122132D01*
X78142Y121248D01*
X77258Y119925D01*
X76948Y118364D01*
X77258Y116803D01*
X78142Y115480D01*
X79465Y114596D01*
X81026Y114286D01*
X81698Y114419D01*
X97000Y99117D01*
X97000Y31601D01*
X96965Y31596D01*
X94775Y30689D01*
X92895Y29247D01*
X91453Y27367D01*
X90546Y25178D01*
X90236Y22828D01*
Y18828D01*
X90546Y16479D01*
X91453Y14289D01*
X92895Y12409D01*
X94775Y10967D01*
X96965Y10060D01*
X99314Y9750D01*
X101664Y10060D01*
X103853Y10967D01*
X105733Y12409D01*
X107176Y14289D01*
X108082Y16479D01*
X108392Y18828D01*
Y22828D01*
X108082Y25178D01*
X107176Y27367D01*
X105733Y29247D01*
X103853Y30689D01*
X101664Y31596D01*
X101629Y31601D01*
X101629Y100076D01*
X101452Y100962D01*
X100951Y101713D01*
X84971Y117692D01*
X85104Y118364D01*
X84794Y119925D01*
X83910Y121248D01*
X82587Y122132D01*
X81026Y122442D01*
D02*
G37*
G36*
X82030Y278532D02*
X71323D01*
X71570Y276659D01*
X72783Y273730D01*
X74713Y271215D01*
X77228Y269285D01*
X80157Y268072D01*
X82030Y267825D01*
Y278532D01*
D02*
G37*
G36*
X70612Y256300D02*
X69051Y255990D01*
X67728Y255106D01*
X66844Y253783D01*
X66534Y252222D01*
X66844Y250661D01*
X67728Y249338D01*
X69051Y248454D01*
X70448Y248176D01*
X75843Y242781D01*
X75811Y242291D01*
X74128Y240098D01*
X73070Y237543D01*
X72709Y234802D01*
X73070Y232061D01*
X74128Y229507D01*
X75811Y227313D01*
X78004Y225630D01*
X80559Y224572D01*
X83300Y224212D01*
X86041Y224572D01*
X88595Y225630D01*
X90788Y227313D01*
X92472Y229507D01*
X93530Y232061D01*
X93890Y234802D01*
X93530Y237543D01*
X92472Y240098D01*
X90788Y242291D01*
X88595Y243974D01*
X86041Y245032D01*
X83300Y245393D01*
X80559Y245032D01*
X80262Y244909D01*
X74401Y250770D01*
X74690Y252222D01*
X74380Y253783D01*
X73496Y255106D01*
X72173Y255990D01*
X70612Y256300D01*
D02*
G37*
%LPD*%
D16*
Y251286D02*
X83300Y238598D01*
X70612Y251286D02*
Y252222D01*
X83300Y234802D02*
Y238598D01*
X206260Y94890D02*
X271260D01*
X48514Y181777D02*
X93980Y136311D01*
X48514Y181777D02*
Y307086D01*
X93980Y136311D02*
X95163Y135128D01*
Y133774D02*
Y135128D01*
X72898Y117602D02*
X73138Y117362D01*
Y78246D02*
X81445Y69939D01*
X72898Y129868D02*
X81116Y138086D01*
X73138Y78246D02*
Y117362D01*
X72898Y117602D02*
Y129868D01*
X95163Y132421D02*
Y133774D01*
X141954Y278972D02*
Y279114D01*
X138053Y157102D02*
Y267078D01*
X99314Y305816D02*
Y307086D01*
Y305816D02*
X138053Y267078D01*
X141954Y278972D02*
X172260Y248666D01*
X500126D01*
X130082Y149132D02*
X138053Y157102D01*
X130082Y148938D02*
Y149132D01*
X99314Y20828D02*
X99314Y100076D01*
X81026Y118364D02*
Y118364D01*
Y118364D02*
X99314Y100076D01*
X134513Y161945D02*
Y245234D01*
X73914Y305833D02*
X134513Y245234D01*
X126825Y154257D02*
X134513Y161945D01*
X73914Y305833D02*
Y307086D01*
X442548Y157734D02*
X443484D01*
X441278Y156464D02*
X442548Y157734D01*
X143460Y156464D02*
X441278D01*
X126149Y154257D02*
X126825D01*
X109048Y164127D02*
X129242D01*
X96201Y151281D02*
X109048Y164127D01*
X118364Y148908D02*
X130051D01*
X130082Y148938D01*
X136780Y142240D01*
X109908Y148940D02*
X109982Y148866D01*
Y144526D02*
Y148866D01*
X136780Y142240D02*
X440944D01*
X153638Y76232D02*
Y100870D01*
X109982Y144526D02*
X153638Y100870D01*
X95163Y132421D02*
X124714Y102870D01*
X146558Y30026D02*
Y92035D01*
X101471Y144401D02*
Y149098D01*
X150098Y74184D02*
Y95774D01*
X101471Y144401D02*
X150098Y95774D01*
X96201Y142392D02*
X146558Y92035D01*
X96201Y142392D02*
Y151281D01*
X124714Y20828D02*
Y102870D01*
X175514Y20828D02*
Y48514D01*
X150114Y73914D02*
Y74168D01*
Y73914D02*
X175514Y48514D01*
X150098Y74184D02*
X150114Y74168D01*
Y20828D02*
Y26470D01*
X146558Y30026D02*
X150114Y26470D01*
X156972Y131064D02*
X157178Y130858D01*
Y82327D02*
Y130858D01*
X153638Y76232D02*
X198339Y31532D01*
X157178Y82327D02*
X204961Y34544D01*
X214598D01*
X198339Y23403D02*
Y31532D01*
Y23403D02*
X200914Y20828D01*
X214598Y34544D02*
X226314Y22828D01*
Y20828D02*
Y22828D01*
D21*
X180700Y219468D02*
D03*
D72*
X179166Y232710D02*
X211595D01*
Y177067D02*
Y232710D01*
X16256Y210312D02*
X16352Y210216D01*
X32512Y89154D02*
Y207287D01*
X16352Y210216D02*
X29583D01*
X32512Y207287D01*
X23114Y305086D02*
X40132Y288068D01*
Y92685D02*
Y288068D01*
Y92685D02*
X70104Y62713D01*
X39624Y78232D02*
Y82042D01*
X32512Y89154D02*
X39624Y82042D01*
Y78232D02*
X50800Y67056D01*
Y46482D02*
Y67056D01*
X23114Y305086D02*
Y307086D01*
X113214Y298662D02*
Y311982D01*
Y298662D02*
X179166Y232710D01*
X28614Y314586D02*
X28614D01*
X34614Y320586D02*
X104610D01*
X28614Y314586D02*
X34614Y320586D01*
X23114Y309086D02*
X28614Y314586D01*
X104610Y320586D02*
X113214Y311982D01*
X23114Y307086D02*
Y309086D01*
X207010Y172483D02*
X211595Y177067D01*
X207010Y172212D02*
Y172483D01*
X481838Y26416D02*
Y38862D01*
X474980Y45720D02*
X481838Y38862D01*
X474980Y45720D02*
Y51308D01*
X448564D02*
X474980D01*
X440944Y58928D02*
X448564Y51308D01*
X440944Y58928D02*
Y79756D01*
D73*
X15240Y155366D02*
D03*
Y89366D02*
D03*
D74*
X271260Y94890D02*
D03*
X206260D02*
D03*
Y49890D02*
D03*
X18300Y234802D02*
D03*
X83300D02*
D03*
Y279802D02*
D03*
X225700Y219468D02*
D03*
Y284468D02*
D03*
X180700D02*
D03*
D75*
X271260Y49890D02*
D03*
X18300Y279802D02*
D03*
D76*
X500126Y248666D02*
D03*
Y299466D02*
D03*
D77*
X23114Y307086D02*
D03*
X226314Y20828D02*
D03*
D78*
X48514Y307086D02*
D03*
X73914D02*
D03*
X99314D02*
D03*
X124714D02*
D03*
X150114D02*
D03*
X200914Y20828D02*
D03*
X175514D02*
D03*
X150114D02*
D03*
X124714D02*
D03*
X99314D02*
D03*
D79*
X50800Y26482D02*
D03*
D80*
Y46482D02*
D03*
D81*
X70612Y252222D02*
D03*
X233172Y242570D02*
D03*
X211595Y232710D02*
D03*
X16256Y210312D02*
D03*
X54356Y109220D02*
D03*
X67945Y138176D02*
D03*
X81445Y69939D02*
D03*
X70104Y62713D02*
D03*
X141954Y279114D02*
D03*
X81116Y138086D02*
D03*
X81026Y118364D02*
D03*
X207010Y172212D02*
D03*
X481838Y26416D02*
D03*
X474980Y51308D02*
D03*
X504698Y49501D02*
D03*
X80264Y55372D02*
D03*
X489712Y72898D02*
D03*
X460558Y61040D02*
D03*
X348488Y81254D02*
D03*
X388460Y182866D02*
D03*
X491236Y188468D02*
D03*
X440944Y79756D02*
D03*
X112522Y102870D02*
D03*
X443484Y157734D02*
D03*
X126149Y154257D02*
D03*
X143460Y156464D02*
D03*
X129242Y164127D02*
D03*
X118364Y148908D02*
D03*
X109908Y148940D02*
D03*
X95163Y133774D02*
D03*
X440944Y142240D02*
D03*
X101471Y149098D02*
D03*
X156972Y131064D02*
D03*
M02*
