G04*
G04 #@! TF.GenerationSoftware,Altium Limited,Altium Designer,20.2.4 (192)*
G04*
G04 Layer_Color=8388736*
%FSLAX44Y44*%
%MOMM*%
G71*
G04*
G04 #@! TF.SameCoordinates,04E9AB2E-1989-4D7A-88AA-1D4CDCA67D46*
G04*
G04*
G04 #@! TF.FilePolarity,Negative*
G04*
G01*
G75*
G04:AMPARAMS|DCode=23|XSize=0.2425mm|YSize=1.1596mm|CornerRadius=0.1212mm|HoleSize=0mm|Usage=FLASHONLY|Rotation=0.000|XOffset=0mm|YOffset=0mm|HoleType=Round|Shape=RoundedRectangle|*
%AMROUNDEDRECTD23*
21,1,0.2425,0.9172,0,0,0.0*
21,1,0.0000,1.1596,0,0,0.0*
1,1,0.2425,0.0000,-0.4586*
1,1,0.2425,0.0000,-0.4586*
1,1,0.2425,0.0000,0.4586*
1,1,0.2425,0.0000,0.4586*
%
%ADD23ROUNDEDRECTD23*%
G04:AMPARAMS|DCode=24|XSize=1.1596mm|YSize=0.2425mm|CornerRadius=0.1212mm|HoleSize=0mm|Usage=FLASHONLY|Rotation=0.000|XOffset=0mm|YOffset=0mm|HoleType=Round|Shape=RoundedRectangle|*
%AMROUNDEDRECTD24*
21,1,1.1596,0.0000,0,0,0.0*
21,1,0.9172,0.2425,0,0,0.0*
1,1,0.2425,0.4586,0.0000*
1,1,0.2425,-0.4586,0.0000*
1,1,0.2425,-0.4586,0.0000*
1,1,0.2425,0.4586,0.0000*
%
%ADD24ROUNDEDRECTD24*%
%ADD25R,1.1596X0.2425*%
%ADD40R,1.4500X0.5000*%
%ADD41R,1.6032X1.8032*%
%ADD42R,2.1032X2.1032*%
%ADD43R,0.7032X0.5532*%
%ADD44R,3.2500X3.2500*%
G04:AMPARAMS|DCode=45|XSize=1.4432mm|YSize=0.7532mm|CornerRadius=0.2391mm|HoleSize=0mm|Usage=FLASHONLY|Rotation=0.000|XOffset=0mm|YOffset=0mm|HoleType=Round|Shape=RoundedRectangle|*
%AMROUNDEDRECTD45*
21,1,1.4432,0.2750,0,0,0.0*
21,1,0.9650,0.7532,0,0,0.0*
1,1,0.4782,0.4825,-0.1375*
1,1,0.4782,-0.4825,-0.1375*
1,1,0.4782,-0.4825,0.1375*
1,1,0.4782,0.4825,0.1375*
%
%ADD45ROUNDEDRECTD45*%
%ADD46R,0.7332X2.1832*%
%ADD47R,0.5532X0.4532*%
%ADD48R,0.7272X1.2032*%
%ADD49R,1.6882X1.1032*%
%ADD50R,4.2032X4.2032*%
%ADD51R,1.0732X1.1332*%
%ADD52R,1.1332X1.0732*%
%ADD53R,0.3782X0.5032*%
%ADD54R,0.5032X0.3782*%
%ADD55R,1.0032X1.0032*%
%ADD56R,0.7620X0.7874*%
%ADD57R,1.0032X1.0032*%
%ADD58R,1.1232X1.1732*%
%ADD59R,2.0232X1.3632*%
%ADD60R,1.1732X1.1232*%
G04:AMPARAMS|DCode=61|XSize=2.2032mm|YSize=1.4032mm|CornerRadius=0.4616mm|HoleSize=0mm|Usage=FLASHONLY|Rotation=0.000|XOffset=0mm|YOffset=0mm|HoleType=Round|Shape=RoundedRectangle|*
%AMROUNDEDRECTD61*
21,1,2.2032,0.4800,0,0,0.0*
21,1,1.2800,1.4032,0,0,0.0*
1,1,0.9232,0.6400,-0.2400*
1,1,0.9232,-0.6400,-0.2400*
1,1,0.9232,-0.6400,0.2400*
1,1,0.9232,0.6400,0.2400*
%
%ADD61ROUNDEDRECTD61*%
%ADD62C,2.1032*%
%ADD63R,2.1032X2.1032*%
%ADD64C,1.4032*%
%ADD65R,1.8032X2.2032*%
%ADD66O,1.8032X2.2032*%
%ADD67C,1.5112*%
%ADD68R,1.5112X1.5112*%
%ADD69C,0.8032*%
D23*
X104012Y131699D02*
D03*
X109012D02*
D03*
X114012D02*
D03*
X119013D02*
D03*
X124012D02*
D03*
X129013D02*
D03*
X134012D02*
D03*
Y84174D02*
D03*
X129013D02*
D03*
X124012D02*
D03*
X119013D02*
D03*
X114012D02*
D03*
X109012D02*
D03*
X104012D02*
D03*
D24*
X142775Y122936D02*
D03*
Y117936D02*
D03*
Y112936D02*
D03*
Y107936D02*
D03*
Y102936D02*
D03*
Y97936D02*
D03*
Y92936D02*
D03*
X95250D02*
D03*
Y97936D02*
D03*
Y102936D02*
D03*
Y107936D02*
D03*
Y112936D02*
D03*
Y117936D02*
D03*
D25*
Y122936D02*
D03*
D40*
X41990Y135366D02*
D03*
Y128866D02*
D03*
Y122366D02*
D03*
Y115866D02*
D03*
Y109366D02*
D03*
D41*
X39740Y154366D02*
D03*
Y90366D02*
D03*
D42*
X15240Y134366D02*
D03*
Y110366D02*
D03*
X180700Y219468D02*
D03*
D43*
X510920Y49686D02*
D03*
X494920D02*
D03*
Y69186D02*
D03*
X510920D02*
D03*
Y56186D02*
D03*
X494920D02*
D03*
X510920Y62686D02*
D03*
X494920D02*
D03*
D44*
X119013Y107936D02*
D03*
D45*
X83400Y197206D02*
D03*
Y187706D02*
D03*
Y178206D02*
D03*
X107100D02*
D03*
Y197206D02*
D03*
D46*
X317246Y23114D02*
D03*
X329946D02*
D03*
X342646D02*
D03*
X355346D02*
D03*
X368046D02*
D03*
X380746D02*
D03*
X393446D02*
D03*
X406146D02*
D03*
X316738Y81254D02*
D03*
X329438D02*
D03*
X342138D02*
D03*
X354838D02*
D03*
X367538D02*
D03*
X380238D02*
D03*
X392938D02*
D03*
X405638D02*
D03*
D47*
X446278Y66040D02*
D03*
Y61040D02*
D03*
Y56040D02*
D03*
Y51040D02*
D03*
X465066D02*
D03*
Y56040D02*
D03*
Y61040D02*
D03*
Y66040D02*
D03*
D48*
X455930Y58928D02*
D03*
D49*
X289535Y246866D02*
D03*
Y231866D02*
D03*
Y216866D02*
D03*
Y201866D02*
D03*
Y186866D02*
D03*
Y171866D02*
D03*
Y156866D02*
D03*
Y141866D02*
D03*
Y126866D02*
D03*
X467385D02*
D03*
Y141866D02*
D03*
Y156866D02*
D03*
Y171866D02*
D03*
Y186866D02*
D03*
Y201866D02*
D03*
Y216866D02*
D03*
Y231866D02*
D03*
Y246866D02*
D03*
D50*
X388460Y182866D02*
D03*
D51*
X168222Y102362D02*
D03*
X183822D02*
D03*
X168476Y118618D02*
D03*
X184076D02*
D03*
X80190Y157988D02*
D03*
X64590D02*
D03*
X26490Y202692D02*
D03*
X42090D02*
D03*
X271198Y139954D02*
D03*
X255598D02*
D03*
X269928Y156464D02*
D03*
X254328D02*
D03*
X270436Y171704D02*
D03*
X254836D02*
D03*
X503354Y172212D02*
D03*
X487754D02*
D03*
X453210Y106680D02*
D03*
X468810D02*
D03*
D52*
X106426Y48842D02*
D03*
Y64442D02*
D03*
X90678Y49096D02*
D03*
Y64696D02*
D03*
X138684D02*
D03*
Y49096D02*
D03*
X485902Y203274D02*
D03*
Y218874D02*
D03*
X264160Y230452D02*
D03*
Y246052D02*
D03*
D53*
X73660Y128426D02*
D03*
Y138176D02*
D03*
X62230Y128426D02*
D03*
Y138176D02*
D03*
D54*
X45261Y170942D02*
D03*
X35511D02*
D03*
D55*
X203962Y155828D02*
D03*
Y139828D02*
D03*
X186690Y155828D02*
D03*
Y139828D02*
D03*
X220980Y155828D02*
D03*
Y139828D02*
D03*
D56*
X58420Y199898D02*
D03*
Y175006D02*
D03*
D57*
X22734Y186690D02*
D03*
X38734D02*
D03*
D58*
X92840Y214376D02*
D03*
X77340D02*
D03*
D59*
X114300Y216136D02*
D03*
Y245636D02*
D03*
D60*
X135890Y231016D02*
D03*
Y215516D02*
D03*
X153670Y231016D02*
D03*
Y215516D02*
D03*
X146050Y179956D02*
D03*
Y195456D02*
D03*
X128270Y179956D02*
D03*
Y195456D02*
D03*
X502920Y188592D02*
D03*
Y204092D02*
D03*
X246126Y246256D02*
D03*
Y230756D02*
D03*
D61*
X15240Y155366D02*
D03*
Y89366D02*
D03*
D62*
X271260Y94890D02*
D03*
X206260D02*
D03*
Y49890D02*
D03*
X18300Y234802D02*
D03*
X83300D02*
D03*
Y279802D02*
D03*
X225700Y219468D02*
D03*
Y284468D02*
D03*
X180700D02*
D03*
D63*
X271260Y49890D02*
D03*
X18300Y279802D02*
D03*
D64*
X500126Y248666D02*
D03*
Y299466D02*
D03*
D65*
X23114Y307086D02*
D03*
X226314Y20828D02*
D03*
D66*
X48514Y307086D02*
D03*
X73914D02*
D03*
X99314D02*
D03*
X124714D02*
D03*
X150114D02*
D03*
X200914Y20828D02*
D03*
X175514D02*
D03*
X150114D02*
D03*
X124714D02*
D03*
X99314D02*
D03*
D67*
X50800Y26482D02*
D03*
D68*
Y46482D02*
D03*
D69*
X70612Y252222D02*
D03*
X233172Y242570D02*
D03*
X211595Y232710D02*
D03*
X16256Y210312D02*
D03*
X54356Y109220D02*
D03*
X67945Y138176D02*
D03*
X81445Y69939D02*
D03*
X70104Y62713D02*
D03*
X141954Y279114D02*
D03*
X81116Y138086D02*
D03*
X81026Y118364D02*
D03*
X207010Y172212D02*
D03*
X481838Y26416D02*
D03*
X474980Y51308D02*
D03*
X504698Y49501D02*
D03*
X80264Y55372D02*
D03*
X489712Y72898D02*
D03*
X460558Y61040D02*
D03*
X348488Y81254D02*
D03*
X388460Y182866D02*
D03*
X491236Y188468D02*
D03*
X440944Y79756D02*
D03*
X112522Y102870D02*
D03*
X443484Y157734D02*
D03*
X126149Y154257D02*
D03*
X143460Y156464D02*
D03*
X129242Y164127D02*
D03*
X118364Y148908D02*
D03*
X109908Y148940D02*
D03*
X95163Y133774D02*
D03*
X440944Y142240D02*
D03*
X101471Y149098D02*
D03*
X156972Y131064D02*
D03*
M02*
