G04*
G04 #@! TF.GenerationSoftware,Altium Limited,Altium Designer,20.2.4 (192)*
G04*
G04 Layer_Color=8388736*
%FSLAX44Y44*%
%MOMM*%
G71*
G04*
G04 #@! TF.SameCoordinates,04E9AB2E-1989-4D7A-88AA-1D4CDCA67D46*
G04*
G04*
G04 #@! TF.FilePolarity,Positive*
G04*
G01*
G75*
%ADD72C,0.5000*%
D72*
X73834Y369478D02*
Y349484D01*
X83831D01*
X87163Y352817D01*
Y356149D01*
X83831Y359481D01*
X73834D01*
X83831D01*
X87163Y362813D01*
Y366146D01*
X83831Y369478D01*
X73834D01*
X97160Y349484D02*
X103824D01*
X107157Y352817D01*
Y359481D01*
X103824Y362813D01*
X97160D01*
X93827Y359481D01*
Y352817D01*
X97160Y349484D01*
X117153Y366146D02*
Y362813D01*
X113821D01*
X120486D01*
X117153D01*
Y352817D01*
X120486Y349484D01*
X133815Y366146D02*
Y362813D01*
X130482D01*
X137147D01*
X133815D01*
Y352817D01*
X137147Y349484D01*
X150476D02*
X157141D01*
X160473Y352817D01*
Y359481D01*
X157141Y362813D01*
X150476D01*
X147144Y359481D01*
Y352817D01*
X150476Y349484D01*
X167137D02*
Y362813D01*
X170469D01*
X173802Y359481D01*
Y349484D01*
Y359481D01*
X177134Y362813D01*
X180466Y359481D01*
Y349484D01*
X207124D02*
Y362813D01*
X213789Y369478D01*
X220453Y362813D01*
Y349484D01*
Y359481D01*
X207124D01*
X227118Y349484D02*
X237115D01*
X240447Y352817D01*
X237115Y356149D01*
X230450D01*
X227118Y359481D01*
X230450Y362813D01*
X240447D01*
X247111Y349484D02*
X257108D01*
X260441Y352817D01*
X257108Y356149D01*
X250444D01*
X247111Y359481D01*
X250444Y362813D01*
X260441D01*
X277102Y349484D02*
X270437D01*
X267105Y352817D01*
Y359481D01*
X270437Y362813D01*
X277102D01*
X280434Y359481D01*
Y356149D01*
X267105D01*
X287099Y349484D02*
Y362813D01*
X290431D01*
X293763Y359481D01*
Y349484D01*
Y359481D01*
X297095Y362813D01*
X300428Y359481D01*
Y349484D01*
X307092Y369478D02*
Y349484D01*
X317089D01*
X320421Y352817D01*
Y356149D01*
Y359481D01*
X317089Y362813D01*
X307092D01*
X327086Y349484D02*
X333750D01*
X330418D01*
Y369478D01*
X327086D01*
X343747Y362813D02*
Y352817D01*
X347079Y349484D01*
X357076D01*
Y346152D01*
X353744Y342820D01*
X350411D01*
X357076Y349484D02*
Y362813D01*
X383734Y369478D02*
Y349484D01*
X397063D01*
X407060Y362813D02*
X413724D01*
X417057Y359481D01*
Y349484D01*
X407060D01*
X403728Y352817D01*
X407060Y356149D01*
X417057D01*
X423721Y362813D02*
Y352817D01*
X427053Y349484D01*
X437050D01*
Y346152D01*
X433718Y342820D01*
X430386D01*
X437050Y349484D02*
Y362813D01*
X453712Y349484D02*
X447047D01*
X443715Y352817D01*
Y359481D01*
X447047Y362813D01*
X453712D01*
X457044Y359481D01*
Y356149D01*
X443715D01*
X463708Y362813D02*
Y349484D01*
Y356149D01*
X467041Y359481D01*
X470373Y362813D01*
X473705D01*
M02*
