G04*
G04 #@! TF.GenerationSoftware,Altium Limited,Altium Designer,20.2.4 (192)*
G04*
G04 Layer_Color=16711935*
%FSLAX44Y44*%
%MOMM*%
G71*
G04*
G04 #@! TF.SameCoordinates,04E9AB2E-1989-4D7A-88AA-1D4CDCA67D46*
G04*
G04*
G04 #@! TF.FilePolarity,Positive*
G04*
G01*
G75*
%ADD10C,0.2000*%
%ADD12C,0.5080*%
%ADD13C,0.4000*%
%ADD14C,0.1270*%
%ADD15C,0.1000*%
%ADD16C,0.2540*%
%ADD72C,0.5000*%
%ADD86C,0.4064*%
%ADD87C,0.1524*%
D10*
X486902Y71120D02*
G03*
X486902Y71120I-1000J0D01*
G01*
X72882Y197612D02*
G03*
X72882Y197612I-1000J0D01*
G01*
X310642Y50025D02*
G03*
X310642Y56375I0J3175D01*
G01*
X70800Y46736D02*
G03*
X70800Y46736I-1000J0D01*
G01*
X-12010Y162366D02*
X49990D01*
Y82366D02*
Y162366D01*
X-12010Y82366D02*
X49990D01*
X-12010D02*
Y162366D01*
X277876Y104390D02*
X282194D01*
Y40390D02*
Y104390D01*
X197104Y40390D02*
X282194D01*
X197104D02*
Y104390D01*
X277876D01*
X84452Y73376D02*
Y142497D01*
Y73376D02*
X153573D01*
Y142497D01*
X84452D02*
X153573D01*
X310642Y11684D02*
Y50025D01*
Y56375D02*
Y93726D01*
X411734D01*
Y11684D02*
Y93726D01*
X310642Y11684D02*
X411734D01*
X442214Y45212D02*
Y72644D01*
Y45212D02*
X469392D01*
Y72644D01*
X442214D02*
X469392D01*
X7366Y225302D02*
X11684D01*
X7366D02*
Y289302D01*
X92456D01*
Y225302D02*
Y289302D01*
X11684Y225302D02*
X92456D01*
X235200Y208534D02*
Y212852D01*
X171200Y208534D02*
X235200D01*
X171200D02*
Y293624D01*
X235200D01*
Y212852D02*
Y293624D01*
X7366Y294386D02*
Y319786D01*
X165862D01*
Y294386D02*
Y319786D01*
X7366Y294386D02*
X165862D01*
X242062Y8128D02*
Y33528D01*
X83566Y8128D02*
X242062D01*
X83566D02*
Y33528D01*
X242062D01*
X196962Y130078D02*
X211212D01*
Y163078D01*
X197212D02*
X211212D01*
X196962Y162828D02*
X197212Y163078D01*
X196962Y130078D02*
Y162828D01*
X179690Y130078D02*
X193940D01*
Y163078D01*
X179940D02*
X193940D01*
X179690Y162828D02*
X179940Y163078D01*
X179690Y130078D02*
Y162828D01*
X65786Y168402D02*
Y209296D01*
X51308Y168402D02*
X65786D01*
X51308D02*
Y209042D01*
X51562Y209296D01*
X65786D01*
X48484Y179690D02*
Y193940D01*
X15484D02*
X48484D01*
X15484Y179940D02*
Y193940D01*
Y179940D02*
X15734Y179690D01*
X48484D01*
X213980Y130078D02*
X228230D01*
Y163078D01*
X214230D02*
X228230D01*
X213980Y162828D02*
X214230Y163078D01*
X213980Y130078D02*
Y162828D01*
X163700Y177900D02*
X162201Y179399D01*
X159201D01*
X157702Y177900D01*
Y171901D01*
X159201Y170402D01*
X162201D01*
X163700Y171901D01*
X171198Y170402D02*
Y179399D01*
X166699Y174900D01*
X172697D01*
X151284Y224152D02*
X149785Y222652D01*
Y219653D01*
X151284Y218154D01*
X157282D01*
X158782Y219653D01*
Y222652D01*
X157282Y224152D01*
X149785Y233149D02*
Y227151D01*
X154284D01*
X152784Y230150D01*
Y231650D01*
X154284Y233149D01*
X157282D01*
X158782Y231650D01*
Y228651D01*
X157282Y227151D01*
X133250Y222628D02*
X131751Y221129D01*
Y218130D01*
X133250Y216630D01*
X139249D01*
X140748Y218130D01*
Y221129D01*
X139249Y222628D01*
X131751Y231625D02*
X133250Y228626D01*
X136250Y225627D01*
X139249D01*
X140748Y227127D01*
Y230126D01*
X139249Y231625D01*
X137749D01*
X136250Y230126D01*
Y225627D01*
X145920Y177900D02*
X144420Y179399D01*
X141421D01*
X139922Y177900D01*
Y171901D01*
X141421Y170402D01*
X144420D01*
X145920Y171901D01*
X148919Y177900D02*
X150419Y179399D01*
X153418D01*
X154917Y177900D01*
Y176400D01*
X153418Y174900D01*
X151918D01*
X153418D01*
X154917Y173401D01*
Y171901D01*
X153418Y170402D01*
X150419D01*
X148919Y171901D01*
X499010Y193164D02*
X497511Y191665D01*
Y188666D01*
X499010Y187166D01*
X505009D01*
X506508Y188666D01*
Y191665D01*
X505009Y193164D01*
X506508Y202161D02*
Y196163D01*
X500510Y202161D01*
X499010D01*
X497511Y200662D01*
Y197663D01*
X499010Y196163D01*
X243232Y239138D02*
X241733Y237638D01*
Y234639D01*
X243232Y233140D01*
X249230D01*
X250730Y234639D01*
Y237638D01*
X249230Y239138D01*
X250730Y242137D02*
Y245136D01*
Y243637D01*
X241733D01*
X243232Y242137D01*
X112236Y113105D02*
Y105608D01*
X113736Y104108D01*
X116735D01*
X118234Y105608D01*
Y113105D01*
X127231D02*
X124232Y111606D01*
X121233Y108607D01*
Y105608D01*
X122733Y104108D01*
X125732D01*
X127231Y105608D01*
Y107107D01*
X125732Y108607D01*
X121233D01*
X89376Y191845D02*
Y184347D01*
X90876Y182848D01*
X93875D01*
X95374Y184347D01*
Y191845D01*
X104371D02*
X98373D01*
Y187346D01*
X101372Y188846D01*
X102872D01*
X104371Y187346D01*
Y184347D01*
X102872Y182848D01*
X99873D01*
X98373Y184347D01*
X363188Y60527D02*
Y53029D01*
X364688Y51530D01*
X367687D01*
X369186Y53029D01*
Y60527D01*
X376684Y51530D02*
Y60527D01*
X372185Y56028D01*
X378183D01*
X496030Y62813D02*
Y55315D01*
X497529Y53816D01*
X500528D01*
X502028Y55315D01*
Y62813D01*
X505027Y61314D02*
X506527Y62813D01*
X509526D01*
X511025Y61314D01*
Y59814D01*
X509526Y58314D01*
X508026D01*
X509526D01*
X511025Y56815D01*
Y55315D01*
X509526Y53816D01*
X506527D01*
X505027Y55315D01*
X316960Y187273D02*
Y179776D01*
X318459Y178276D01*
X321459D01*
X322958Y179776D01*
Y187273D01*
X325957Y178276D02*
X328956D01*
X327457D01*
Y187273D01*
X325957Y185774D01*
X31718Y251174D02*
Y260171D01*
X36216D01*
X37716Y258672D01*
Y255672D01*
X36216Y254173D01*
X31718D01*
X34717D02*
X37716Y251174D01*
X46713Y260171D02*
X40715D01*
Y251174D01*
X46713D01*
X40715Y255672D02*
X43714D01*
X55710Y258672D02*
X54211Y260171D01*
X51212D01*
X49712Y258672D01*
Y257172D01*
X51212Y255672D01*
X54211D01*
X55710Y254173D01*
Y252673D01*
X54211Y251174D01*
X51212D01*
X49712Y252673D01*
X64707Y260171D02*
X58709D01*
Y251174D01*
X64707D01*
X58709Y255672D02*
X61708D01*
X67706Y260171D02*
X73704D01*
X70705D01*
Y251174D01*
X191738Y254583D02*
Y247085D01*
X193237Y245586D01*
X196236D01*
X197736Y247085D01*
Y254583D01*
X206733Y253084D02*
X205234Y254583D01*
X202235D01*
X200735Y253084D01*
Y251584D01*
X202235Y250084D01*
X205234D01*
X206733Y248585D01*
Y247085D01*
X205234Y245586D01*
X202235D01*
X200735Y247085D01*
X215730Y254583D02*
X209732D01*
Y245586D01*
X215730D01*
X209732Y250084D02*
X212731D01*
X218729Y245586D02*
Y254583D01*
X223228D01*
X224727Y253084D01*
Y250084D01*
X223228Y248585D01*
X218729D01*
X221728D02*
X224727Y245586D01*
X228568Y77291D02*
Y68294D01*
X233067D01*
X234566Y69794D01*
Y71293D01*
X233067Y72793D01*
X228568D01*
X233067D01*
X234566Y74292D01*
Y75792D01*
X233067Y77291D01*
X228568D01*
X242064D02*
X239065D01*
X237565Y75792D01*
Y69794D01*
X239065Y68294D01*
X242064D01*
X243563Y69794D01*
Y75792D01*
X242064Y77291D01*
X251061D02*
X248062D01*
X246562Y75792D01*
Y69794D01*
X248062Y68294D01*
X251061D01*
X252560Y69794D01*
Y75792D01*
X251061Y77291D01*
X255559D02*
X261557D01*
X258558D01*
Y68294D01*
X163804Y98608D02*
Y107605D01*
X168302D01*
X169802Y106106D01*
Y103107D01*
X168302Y101607D01*
X163804D01*
X166803D02*
X169802Y98608D01*
X172801D02*
X175800D01*
X174301D01*
Y107605D01*
X172801Y106106D01*
X184797Y98608D02*
Y107605D01*
X180299Y103107D01*
X186297D01*
X164058Y114864D02*
Y123861D01*
X168556D01*
X170056Y122362D01*
Y119363D01*
X168556Y117863D01*
X164058D01*
X167057D02*
X170056Y114864D01*
X173055D02*
X176054D01*
X174555D01*
Y123861D01*
X173055Y122362D01*
X180553D02*
X182052Y123861D01*
X185051D01*
X186551Y122362D01*
Y120862D01*
X185051Y119363D01*
X183552D01*
X185051D01*
X186551Y117863D01*
Y116363D01*
X185051Y114864D01*
X182052D01*
X180553Y116363D01*
X110014Y45942D02*
X101017D01*
Y50441D01*
X102516Y51940D01*
X105515D01*
X107015Y50441D01*
Y45942D01*
Y48941D02*
X110014Y51940D01*
Y54939D02*
Y57938D01*
Y56439D01*
X101017D01*
X102516Y54939D01*
X110014Y68435D02*
Y62437D01*
X104016Y68435D01*
X102516D01*
X101017Y66935D01*
Y63936D01*
X102516Y62437D01*
X95028Y47974D02*
X86031D01*
Y52473D01*
X87530Y53972D01*
X90529D01*
X92029Y52473D01*
Y47974D01*
Y50973D02*
X95028Y53972D01*
Y56971D02*
Y59970D01*
Y58471D01*
X86031D01*
X87530Y56971D01*
X95028Y64469D02*
Y67468D01*
Y65968D01*
X86031D01*
X87530Y64469D01*
X64230Y153384D02*
Y162381D01*
X68728D01*
X70228Y160882D01*
Y157882D01*
X68728Y156383D01*
X64230D01*
X67229D02*
X70228Y153384D01*
X73227D02*
X76226D01*
X74727D01*
Y162381D01*
X73227Y160882D01*
X80725D02*
X82224Y162381D01*
X85223D01*
X86723Y160882D01*
Y154883D01*
X85223Y153384D01*
X82224D01*
X80725Y154883D01*
Y160882D01*
X143034Y50260D02*
X134037D01*
Y54759D01*
X135536Y56258D01*
X138535D01*
X140035Y54759D01*
Y50260D01*
Y53259D02*
X143034Y56258D01*
X141535Y59257D02*
X143034Y60757D01*
Y63756D01*
X141535Y65255D01*
X135536D01*
X134037Y63756D01*
Y60757D01*
X135536Y59257D01*
X137036D01*
X138535Y60757D01*
Y65255D01*
X27908Y199104D02*
Y208101D01*
X32406D01*
X33906Y206602D01*
Y203603D01*
X32406Y202103D01*
X27908D01*
X30907D02*
X33906Y199104D01*
X36905Y206602D02*
X38405Y208101D01*
X41404D01*
X42903Y206602D01*
Y205102D01*
X41404Y203603D01*
X42903Y202103D01*
Y200604D01*
X41404Y199104D01*
X38405D01*
X36905Y200604D01*
Y202103D01*
X38405Y203603D01*
X36905Y205102D01*
Y206602D01*
X38405Y203603D02*
X41404D01*
X257016Y135604D02*
Y144601D01*
X261514D01*
X263014Y143102D01*
Y140103D01*
X261514Y138603D01*
X257016D01*
X260015D02*
X263014Y135604D01*
X266013Y144601D02*
X272011D01*
Y143102D01*
X266013Y137104D01*
Y135604D01*
X255492Y152114D02*
Y161111D01*
X259991D01*
X261490Y159612D01*
Y156613D01*
X259991Y155113D01*
X255492D01*
X258491D02*
X261490Y152114D01*
X270487Y161111D02*
X267488Y159612D01*
X264489Y156613D01*
Y153614D01*
X265989Y152114D01*
X268988D01*
X270487Y153614D01*
Y155113D01*
X268988Y156613D01*
X264489D01*
X489998Y205708D02*
X481001D01*
Y210207D01*
X482500Y211706D01*
X485499D01*
X486999Y210207D01*
Y205708D01*
Y208707D02*
X489998Y211706D01*
X481001Y220703D02*
Y214705D01*
X485499D01*
X484000Y217704D01*
Y219204D01*
X485499Y220703D01*
X488498D01*
X489998Y219204D01*
Y216205D01*
X488498Y214705D01*
X255492Y167608D02*
Y176605D01*
X259991D01*
X261490Y175106D01*
Y172106D01*
X259991Y170607D01*
X255492D01*
X258491D02*
X261490Y167608D01*
X268988D02*
Y176605D01*
X264489Y172106D01*
X270487D01*
X268256Y231870D02*
X259259D01*
Y236369D01*
X260758Y237868D01*
X263757D01*
X265257Y236369D01*
Y231870D01*
Y234869D02*
X268256Y237868D01*
X260758Y240867D02*
X259259Y242367D01*
Y245366D01*
X260758Y246865D01*
X262258D01*
X263757Y245366D01*
Y243866D01*
Y245366D01*
X265257Y246865D01*
X266756D01*
X268256Y245366D01*
Y242367D01*
X266756Y240867D01*
X488156Y168624D02*
Y177621D01*
X492654D01*
X494154Y176122D01*
Y173123D01*
X492654Y171623D01*
X488156D01*
X491155D02*
X494154Y168624D01*
X503151D02*
X497153D01*
X503151Y174622D01*
Y176122D01*
X501652Y177621D01*
X498653D01*
X497153Y176122D01*
X456406Y102076D02*
Y111073D01*
X460905D01*
X462404Y109574D01*
Y106574D01*
X460905Y105075D01*
X456406D01*
X459405D02*
X462404Y102076D01*
X465403D02*
X468402D01*
X466903D01*
Y111073D01*
X465403Y109574D01*
X168878Y311225D02*
Y303727D01*
X170378Y302228D01*
X173377D01*
X174876Y303727D01*
Y311225D01*
X177875Y302228D02*
Y308226D01*
X180874Y311225D01*
X183873Y308226D01*
Y302228D01*
Y306726D01*
X177875D01*
X186872Y302228D02*
Y311225D01*
X191371D01*
X192870Y309726D01*
Y306726D01*
X191371Y305227D01*
X186872D01*
X189871D02*
X192870Y302228D01*
X195869Y311225D02*
X201867D01*
X198868D01*
Y302228D01*
X251584Y24967D02*
X248585D01*
X250084D01*
Y17470D01*
X248585Y15970D01*
X247085D01*
X245586Y17470D01*
X260581Y15970D02*
X254583D01*
X260581Y21968D01*
Y23468D01*
X259082Y24967D01*
X256083D01*
X254583Y23468D01*
X36446Y28777D02*
X33447D01*
X34946D01*
Y21279D01*
X33447Y19780D01*
X31948D01*
X30448Y21279D01*
X39445Y19780D02*
X42444D01*
X40945D01*
Y28777D01*
X39445Y27278D01*
X69013Y107410D02*
X78010D01*
Y111909D01*
X76511Y113408D01*
X70512D01*
X69013Y111909D01*
Y107410D01*
X70512Y116407D02*
X69013Y117907D01*
Y120906D01*
X70512Y122405D01*
X72012D01*
X73512Y120906D01*
X75011Y122405D01*
X76511D01*
X78010Y120906D01*
Y117907D01*
X76511Y116407D01*
X75011D01*
X73512Y117907D01*
X72012Y116407D01*
X70512D01*
X73512Y117907D02*
Y120906D01*
X55805Y108172D02*
X64802D01*
Y112670D01*
X63302Y114170D01*
X57304D01*
X55805Y112670D01*
Y108172D01*
Y117169D02*
Y123167D01*
X57304D01*
X63302Y117169D01*
X64802D01*
X14700Y176097D02*
Y167100D01*
X19198D01*
X20698Y168599D01*
Y174598D01*
X19198Y176097D01*
X14700D01*
X29695D02*
X26696Y174598D01*
X23697Y171598D01*
Y168599D01*
X25197Y167100D01*
X28196D01*
X29695Y168599D01*
Y170099D01*
X28196Y171598D01*
X23697D01*
X199315Y139414D02*
X208312D01*
Y143912D01*
X206812Y145412D01*
X200814D01*
X199315Y143912D01*
Y139414D01*
Y154409D02*
Y148411D01*
X203813D01*
X202314Y151410D01*
Y152910D01*
X203813Y154409D01*
X206812D01*
X208312Y152910D01*
Y149911D01*
X206812Y148411D01*
X182043Y140684D02*
X191040D01*
Y145183D01*
X189541Y146682D01*
X183542D01*
X182043Y145183D01*
Y140684D01*
X191040Y154180D02*
X182043D01*
X186542Y149681D01*
Y155679D01*
X53265Y181832D02*
X62262D01*
Y186331D01*
X60763Y187830D01*
X54764D01*
X53265Y186331D01*
Y181832D01*
X54764Y190829D02*
X53265Y192329D01*
Y195328D01*
X54764Y196827D01*
X56264D01*
X57764Y195328D01*
Y193828D01*
Y195328D01*
X59263Y196827D01*
X60763D01*
X62262Y195328D01*
Y192329D01*
X60763Y190829D01*
X25622Y191083D02*
Y182086D01*
X30120D01*
X31620Y183585D01*
Y189584D01*
X30120Y191083D01*
X25622D01*
X40617Y182086D02*
X34619D01*
X40617Y188084D01*
Y189584D01*
X39118Y191083D01*
X36119D01*
X34619Y189584D01*
X216333Y141954D02*
X225330D01*
Y146453D01*
X223831Y147952D01*
X217832D01*
X216333Y146453D01*
Y141954D01*
X225330Y150951D02*
Y153950D01*
Y152451D01*
X216333D01*
X217832Y150951D01*
X84198Y217016D02*
X82698Y218515D01*
X79700D01*
X78200Y217016D01*
Y211017D01*
X79700Y209518D01*
X82698D01*
X84198Y211017D01*
X87197Y217016D02*
X88697Y218515D01*
X91696D01*
X93195Y217016D01*
Y215516D01*
X91696Y214016D01*
X93195Y212517D01*
Y211017D01*
X91696Y209518D01*
X88697D01*
X87197Y211017D01*
Y212517D01*
X88697Y214016D01*
X87197Y215516D01*
Y217016D01*
X88697Y214016D02*
X91696D01*
X112900Y235304D02*
X111400Y236803D01*
X108401D01*
X106902Y235304D01*
Y229305D01*
X108401Y227806D01*
X111400D01*
X112900Y229305D01*
X115899Y236803D02*
X121897D01*
Y235304D01*
X115899Y229305D01*
Y227806D01*
X448532Y63575D02*
Y56077D01*
X450032Y54578D01*
X453031D01*
X454530Y56077D01*
Y63575D01*
X463527Y54578D02*
X457529D01*
X463527Y60576D01*
Y62076D01*
X462028Y63575D01*
X459029D01*
X457529Y62076D01*
X32691Y109442D02*
X40188D01*
X41688Y110941D01*
Y113940D01*
X40188Y115440D01*
X32691D01*
X34190Y124437D02*
X32691Y122938D01*
Y119939D01*
X34190Y118439D01*
X35690D01*
X37190Y119939D01*
Y122938D01*
X38689Y124437D01*
X40188D01*
X41688Y122938D01*
Y119939D01*
X40188Y118439D01*
X32691Y127436D02*
X41688D01*
Y131935D01*
X40188Y133434D01*
X38689D01*
X37190Y131935D01*
Y127436D01*
Y131935D01*
X35690Y133434D01*
X34190D01*
X32691Y131935D01*
Y127436D01*
D12*
X265760Y51390D02*
G03*
X265760Y51390I-3000J0D01*
G01*
X81412Y122774D02*
G03*
X81420Y122922I-1261J148D01*
G01*
X317964Y17132D02*
G03*
X317964Y17132I-718J0D01*
G01*
X438255Y66294D02*
G03*
X438255Y66294I-359J0D01*
G01*
X29800Y278302D02*
G03*
X29800Y278302I-3000J0D01*
G01*
X185200Y227968D02*
G03*
X185200Y227968I-3000J0D01*
G01*
X25654Y307086D02*
G03*
X25654Y307086I-2540J0D01*
G01*
X228854Y20828D02*
G03*
X228854Y20828I-2540J0D01*
G01*
X62230Y204978D02*
G03*
X62230Y204978I-254J0D01*
G01*
D13*
X296214Y258120D02*
G03*
X296214Y258120I-500J0D01*
G01*
D14*
X490474Y72898D02*
X515620D01*
X490474Y45974D02*
Y72898D01*
Y45974D02*
X515620D01*
Y72898D01*
X74930Y172466D02*
Y203200D01*
X115824D01*
Y172466D02*
Y203200D01*
X74930Y172466D02*
X115824D01*
X288714Y118120D02*
Y318120D01*
Y118120D02*
X468714D01*
X288714Y318120D02*
X468714D01*
Y118120D02*
Y318120D01*
X300464Y126620D02*
X456964D01*
Y249120D01*
X300464D02*
X456964D01*
X300464Y126620D02*
Y249120D01*
X161544Y95504D02*
X190754D01*
X161544Y109220D02*
X190754D01*
Y95504D02*
Y109220D01*
X161544Y95504D02*
Y109220D01*
X161798Y111760D02*
X191008D01*
X161798Y125476D02*
X191008D01*
Y111760D02*
Y125476D01*
X161798Y111760D02*
Y125476D01*
X113284Y42164D02*
Y71374D01*
X99568Y42164D02*
Y71374D01*
X113284D01*
X99568Y42164D02*
X113284D01*
X97536Y42418D02*
Y71628D01*
X83820Y42418D02*
Y71628D01*
X97536D01*
X83820Y42418D02*
X97536D01*
X57658Y164846D02*
X86868D01*
X57658Y151130D02*
X86868D01*
X57658D02*
Y164846D01*
X86868Y151130D02*
Y164846D01*
X131826Y42164D02*
Y71374D01*
X145542Y42164D02*
Y71374D01*
X131826Y42164D02*
X145542D01*
X131826Y71374D02*
X145542D01*
X19812Y195834D02*
X49022D01*
X19812Y209550D02*
X49022D01*
Y195834D02*
Y209550D01*
X19812Y195834D02*
Y209550D01*
X248666Y146812D02*
X277876D01*
X248666Y133096D02*
X277876D01*
X248666D02*
Y146812D01*
X277876Y133096D02*
Y146812D01*
X247396Y163322D02*
X276606D01*
X247396Y149606D02*
X276606D01*
X247396D02*
Y163322D01*
X276606Y149606D02*
Y163322D01*
X492760Y196596D02*
Y225806D01*
X479044Y196596D02*
Y225806D01*
X492760D01*
X479044Y196596D02*
X492760D01*
X247904Y178562D02*
X277114D01*
X247904Y164846D02*
X277114D01*
X247904D02*
Y178562D01*
X277114Y164846D02*
Y178562D01*
X271018Y223774D02*
Y252984D01*
X257302Y223774D02*
Y252984D01*
X271018D01*
X257302Y223774D02*
X271018D01*
X480822Y179070D02*
X510032D01*
X480822Y165354D02*
X510032D01*
X480822D02*
Y179070D01*
X510032Y165354D02*
Y179070D01*
X446532Y99822D02*
X475742D01*
X446532Y113538D02*
X475742D01*
Y99822D02*
Y113538D01*
X446532Y99822D02*
Y113538D01*
X-11700Y66236D02*
X64300D01*
Y7236D02*
Y66236D01*
X-11700Y7236D02*
X64300D01*
X-11700D02*
Y66236D01*
X70104Y221488D02*
X99822D01*
X70104Y207010D02*
X99822D01*
X70104D02*
Y221488D01*
X99822Y207010D02*
Y221488D01*
X102616Y254000D02*
X125984D01*
X102616Y207772D02*
X125984D01*
Y254000D01*
X102616Y207772D02*
Y254000D01*
X128778Y208280D02*
Y237998D01*
X143256Y208280D02*
Y237998D01*
X128778Y208280D02*
X143256D01*
X128778Y237998D02*
X143256D01*
X146558Y208280D02*
Y237998D01*
X161036Y208280D02*
Y237998D01*
X146558Y208280D02*
X161036D01*
X146558Y237998D02*
X161036D01*
X153162Y172974D02*
Y202692D01*
X138684Y172974D02*
Y202692D01*
X153162D01*
X138684Y172974D02*
X153162D01*
X135382D02*
Y202692D01*
X120904Y172974D02*
Y202692D01*
X135382D01*
X120904Y172974D02*
X135382D01*
X510032Y181610D02*
Y211328D01*
X495554Y181610D02*
Y211328D01*
X510032D01*
X495554Y181610D02*
X510032D01*
X239014Y223520D02*
Y253238D01*
X253492Y223520D02*
Y253238D01*
X239014Y223520D02*
X253492D01*
X239014Y253238D02*
X253492D01*
D15*
X70866Y124665D02*
X76454D01*
Y141937D01*
X70866D02*
X76454D01*
X70866Y124665D02*
Y141937D01*
X59436Y124665D02*
X65024D01*
Y141937D01*
X59436D02*
X65024D01*
X59436Y124665D02*
Y141937D01*
X49022Y168148D02*
Y173736D01*
X31750D02*
X49022D01*
X31750Y168148D02*
Y173736D01*
Y168148D02*
X49022D01*
D16*
X-42032Y328197D02*
X-36952Y328189D01*
X-42540Y-6067D02*
X-37460Y-6075D01*
X-39492Y328193D02*
X-34435Y312945D01*
X-44595Y312960D02*
X-39492Y328193D01*
X-40000Y-6071D02*
X-34897Y9161D01*
X-45057Y9176D02*
X-40000Y-6071D01*
X-39624Y241300D02*
X-39492Y328193D01*
X-40000Y-6071D02*
X-39868Y80822D01*
X527022Y-19709D02*
X527028Y-14629D01*
X-6099Y-19050D02*
X-6093Y-13970D01*
X511779Y-22231D02*
X527025Y-17169D01*
X511791Y-12070D02*
X527025Y-17169D01*
X-6096Y-16510D02*
X9138Y-21609D01*
X-6096Y-16510D02*
X9150Y-11449D01*
X339434Y-16937D02*
X527025Y-17169D01*
X-6096Y-16510D02*
X181495Y-16742D01*
D72*
X93392Y412912D02*
X106721D01*
X100056D01*
Y392919D01*
X116718D02*
X123382D01*
X126715Y396251D01*
Y402915D01*
X123382Y406247D01*
X116718D01*
X113385Y402915D01*
Y396251D01*
X116718Y392919D01*
X133379Y386254D02*
Y406247D01*
X143376D01*
X146708Y402915D01*
Y396251D01*
X143376Y392919D01*
X133379D01*
X173366D02*
Y406247D01*
X180031Y412912D01*
X186695Y406247D01*
Y392919D01*
Y402915D01*
X173366D01*
X193360Y392919D02*
X203357D01*
X206689Y396251D01*
X203357Y399583D01*
X196692D01*
X193360Y402915D01*
X196692Y406247D01*
X206689D01*
X213353Y392919D02*
X223350D01*
X226682Y396251D01*
X223350Y399583D01*
X216686D01*
X213353Y402915D01*
X216686Y406247D01*
X226682D01*
X243344Y392919D02*
X236679D01*
X233347Y396251D01*
Y402915D01*
X236679Y406247D01*
X243344D01*
X246676Y402915D01*
Y399583D01*
X233347D01*
X253340Y392919D02*
Y406247D01*
X256673D01*
X260005Y402915D01*
Y392919D01*
Y402915D01*
X263337Y406247D01*
X266670Y402915D01*
Y392919D01*
X273334Y412912D02*
Y392919D01*
X283331D01*
X286663Y396251D01*
Y399583D01*
Y402915D01*
X283331Y406247D01*
X273334D01*
X293328Y392919D02*
X299992D01*
X296660D01*
Y412912D01*
X293328D01*
X309989Y406247D02*
Y396251D01*
X313321Y392919D01*
X323318D01*
Y389586D01*
X319986Y386254D01*
X316653D01*
X323318Y392919D02*
Y406247D01*
X349976Y412912D02*
Y392919D01*
X363305D01*
X373302Y406247D02*
X379966D01*
X383299Y402915D01*
Y392919D01*
X373302D01*
X369969Y396251D01*
X373302Y399583D01*
X383299D01*
X389963Y406247D02*
Y396251D01*
X393295Y392919D01*
X403292D01*
Y389586D01*
X399960Y386254D01*
X396628D01*
X403292Y392919D02*
Y406247D01*
X419953Y392919D02*
X413289D01*
X409957Y396251D01*
Y402915D01*
X413289Y406247D01*
X419953D01*
X423286Y402915D01*
Y399583D01*
X409957D01*
X429950Y406247D02*
Y392919D01*
Y399583D01*
X433283Y402915D01*
X436615Y406247D01*
X439947D01*
D86*
X302514Y271145D02*
Y309245D01*
X324739D01*
Y283845D02*
Y309245D01*
Y283845D02*
X346964D01*
Y309245D01*
X369189D01*
Y283845D02*
Y309245D01*
Y283845D02*
X391414D01*
Y309245D01*
X413639D01*
X435864D01*
Y258445D02*
Y309245D01*
X413639Y258445D02*
Y309245D01*
D87*
X-43418Y83367D02*
X-45954Y85910D01*
X-45946Y90988D01*
X-43403Y93524D01*
X-40864Y93520D01*
X-38328Y90977D01*
X-38332Y88438D01*
X-38328Y90977D01*
X-35785Y93512D01*
X-33246Y93508D01*
X-30711Y90965D01*
X-30719Y85887D01*
X-33262Y83351D01*
X-43395Y98602D02*
X-45931Y101145D01*
X-45923Y106223D01*
X-43380Y108759D01*
X-40841Y108755D01*
X-38305Y106212D01*
X-38309Y103673D01*
X-38305Y106212D01*
X-35762Y108747D01*
X-33223Y108743D01*
X-30688Y106200D01*
X-30696Y101122D01*
X-33238Y98587D01*
X-30676Y113818D02*
X-33215Y113822D01*
X-33212Y116361D01*
X-30672Y116357D01*
X-30676Y113818D01*
X-30645Y134131D02*
X-45880Y134154D01*
X-38274Y126525D01*
X-38259Y136682D01*
X-30618Y151905D02*
X-30634Y141749D01*
X-40775Y151921D01*
X-43314Y151925D01*
X-45857Y149389D01*
X-45865Y144311D01*
X-43330Y141768D01*
X-45830Y167164D02*
X-43299Y162081D01*
X-38228Y156995D01*
X-33150Y156987D01*
X-30607Y159523D01*
X-30599Y164601D01*
X-33134Y167144D01*
X-35673Y167148D01*
X-38217Y164613D01*
X-38228Y156995D01*
X-30557Y192532D02*
X-35643Y187461D01*
X-40721Y187469D01*
X-45792Y192555D01*
X-30545Y200150D02*
X-40702Y200165D01*
X-40698Y202704D01*
X-38155Y205240D01*
X-30537Y205228D01*
X-38155Y205240D01*
X-40690Y207783D01*
X-38147Y210318D01*
X-30530Y210306D01*
X-30522Y215385D02*
X-40679Y215400D01*
X-40675Y217939D01*
X-38132Y220475D01*
X-30514Y220463D01*
X-38132Y220475D01*
X-40667Y223018D01*
X-38124Y225553D01*
X-30506Y225541D01*
X-30499Y230620D02*
X-35569Y235706D01*
X-40648Y235714D01*
X-45734Y230643D01*
X194199Y-10664D02*
X184042Y-10652D01*
X184033Y-18269D01*
X189114Y-15736D01*
X191654Y-15739D01*
X194190Y-18282D01*
X194183Y-23360D01*
X191641Y-25896D01*
X186563Y-25890D01*
X184027Y-23347D01*
X199274Y-13210D02*
X201817Y-10674D01*
X206895Y-10680D01*
X209431Y-13222D01*
X209428Y-15761D01*
X206886Y-18297D01*
X204346Y-18294D01*
X206886Y-18297D01*
X209422Y-20840D01*
X209419Y-23379D01*
X206876Y-25915D01*
X201798Y-25909D01*
X199262Y-23366D01*
X214494Y-25924D02*
X214497Y-23385D01*
X217036Y-23388D01*
X217033Y-25928D01*
X214494Y-25924D01*
X227205Y-13244D02*
X229748Y-10708D01*
X234826Y-10714D01*
X237362Y-13257D01*
X237359Y-15796D01*
X234816Y-18332D01*
X232277Y-18329D01*
X234816Y-18332D01*
X237353Y-20874D01*
X237349Y-23414D01*
X234807Y-25949D01*
X229729Y-25943D01*
X227193Y-23401D01*
X242425Y-25959D02*
X247503Y-25965D01*
X244964Y-25962D01*
X244983Y-10727D01*
X242440Y-13263D01*
X265277Y-25987D02*
X255121Y-25975D01*
X265290Y-15831D01*
X265293Y-13291D01*
X262757Y-10749D01*
X257679Y-10743D01*
X255136Y-13279D01*
X290669Y-26019D02*
X285597Y-20934D01*
X285603Y-15856D01*
X290688Y-10783D01*
X298286Y-26028D02*
X298299Y-15871D01*
X300838Y-15874D01*
X303374Y-18417D01*
X303365Y-26034D01*
X303374Y-18417D01*
X305917Y-15881D01*
X308453Y-18423D01*
X308443Y-26041D01*
X313522Y-26047D02*
X313534Y-15890D01*
X316073Y-15893D01*
X318609Y-18436D01*
X318600Y-26053D01*
X318609Y-18436D01*
X321152Y-15900D01*
X323688Y-18442D01*
X323678Y-26059D01*
X328757Y-26066D02*
X333841Y-20994D01*
X333848Y-15915D01*
X328775Y-10831D01*
M02*
