G04*
G04 #@! TF.GenerationSoftware,Altium Limited,Altium Designer,20.2.4 (192)*
G04*
G04 Layer_Color=32896*
%FSLAX44Y44*%
%MOMM*%
G71*
G04*
G04 #@! TF.SameCoordinates,04E9AB2E-1989-4D7A-88AA-1D4CDCA67D46*
G04*
G04*
G04 #@! TF.FilePolarity,Positive*
G04*
G01*
G75*
%ADD10C,0.2000*%
%ADD15C,0.1000*%
D10*
X68155Y13491D02*
X66489Y11824D01*
Y8492D01*
X68155Y6826D01*
X74820D01*
X76486Y8492D01*
Y11824D01*
X74820Y13491D01*
X71488D01*
Y10158D01*
X76486Y16823D02*
X66489D01*
X76486Y23487D01*
X66489D01*
Y26820D02*
X76486D01*
Y31818D01*
X74820Y33484D01*
X68155D01*
X66489Y31818D01*
Y26820D01*
X67251Y48035D02*
Y41370D01*
X72250D01*
X70584Y44702D01*
Y46368D01*
X72250Y48035D01*
X75582D01*
X77248Y46368D01*
Y43036D01*
X75582Y41370D01*
X67251Y51367D02*
X73916D01*
X77248Y54699D01*
X73916Y58031D01*
X67251D01*
D15*
X95234Y35544D02*
Y40542D01*
X97733D01*
X98566Y39709D01*
Y38043D01*
X97733Y37210D01*
X95234D01*
X96900D02*
X98566Y35544D01*
X100232Y40542D02*
X101898D01*
X101065D01*
Y35544D01*
X100232D01*
X101898D01*
X120126Y40288D02*
Y35290D01*
X122625D01*
X123458Y36123D01*
Y39455D01*
X122625Y40288D01*
X120126D01*
X125124D02*
X128457D01*
X126791D01*
Y35290D01*
X130123D02*
Y40288D01*
X132622D01*
X133455Y39455D01*
Y37789D01*
X132622Y36956D01*
X130123D01*
X131789D02*
X133455Y35290D01*
X146288Y35798D02*
Y40796D01*
X148787D01*
X149620Y39963D01*
Y38297D01*
X148787Y37464D01*
X146288D01*
X147954D02*
X149620Y35798D01*
X151286Y40796D02*
X154619D01*
X152952D01*
Y35798D01*
X159617Y39963D02*
X158784Y40796D01*
X157118D01*
X156285Y39963D01*
Y39130D01*
X157118Y38297D01*
X158784D01*
X159617Y37464D01*
Y36631D01*
X158784Y35798D01*
X157118D01*
X156285Y36631D01*
X168894Y40542D02*
Y35544D01*
X171393D01*
X172226Y36377D01*
Y39709D01*
X171393Y40542D01*
X168894D01*
X177225Y39709D02*
X176392Y40542D01*
X174725D01*
X173892Y39709D01*
Y36377D01*
X174725Y35544D01*
X176392D01*
X177225Y36377D01*
X178891Y40542D02*
Y35544D01*
X181390D01*
X182223Y36377D01*
Y39709D01*
X181390Y40542D01*
X178891D01*
X189468Y39780D02*
Y34782D01*
X191967D01*
X192800Y35615D01*
Y38947D01*
X191967Y39780D01*
X189468D01*
X197799Y38947D02*
X196966Y39780D01*
X195299D01*
X194466Y38947D01*
Y38114D01*
X195299Y37281D01*
X196966D01*
X197799Y36448D01*
Y35615D01*
X196966Y34782D01*
X195299D01*
X194466Y35615D01*
X199465Y34782D02*
Y39780D01*
X201964D01*
X202797Y38947D01*
Y37281D01*
X201964Y36448D01*
X199465D01*
X201131D02*
X202797Y34782D01*
X224804Y39201D02*
X223971Y40034D01*
X222305D01*
X221472Y39201D01*
Y35869D01*
X222305Y35036D01*
X223971D01*
X224804Y35869D01*
X226470Y40034D02*
X229803D01*
X228137D01*
Y35036D01*
X234801Y39201D02*
X233968Y40034D01*
X232302D01*
X231469Y39201D01*
Y38368D01*
X232302Y37535D01*
X233968D01*
X234801Y36702D01*
Y35869D01*
X233968Y35036D01*
X232302D01*
X231469Y35869D01*
X41132Y292510D02*
Y287512D01*
X43631D01*
X44464Y288345D01*
Y291677D01*
X43631Y292510D01*
X41132D01*
X46130D02*
X49463D01*
X47797D01*
Y287512D01*
X51129D02*
Y292510D01*
X53628D01*
X54461Y291677D01*
Y290011D01*
X53628Y289178D01*
X51129D01*
X52795D02*
X54461Y287512D01*
X152414Y292256D02*
X149082D01*
Y289757D01*
X150748Y290590D01*
X151581D01*
X152414Y289757D01*
Y288091D01*
X151581Y287258D01*
X149915D01*
X149082Y288091D01*
X154080Y292256D02*
Y288924D01*
X155746Y287258D01*
X157413Y288924D01*
Y292256D01*
X124982Y291677D02*
X124149Y292510D01*
X122483D01*
X121650Y291677D01*
Y288345D01*
X122483Y287512D01*
X124149D01*
X124982Y288345D01*
Y290011D01*
X123316D01*
X126648Y287512D02*
Y292510D01*
X129981Y287512D01*
Y292510D01*
X131647D02*
Y287512D01*
X134146D01*
X134979Y288345D01*
Y291677D01*
X134146Y292510D01*
X131647D01*
X99044Y292256D02*
X102376D01*
X100710D01*
Y287258D01*
X104042Y292256D02*
X107375Y287258D01*
Y292256D02*
X104042Y287258D01*
X2201Y300466D02*
X1368Y301299D01*
Y302965D01*
X2201Y303798D01*
X3034D01*
X3867Y302965D01*
Y302132D01*
Y302965D01*
X4700Y303798D01*
X5533D01*
X6366Y302965D01*
Y301299D01*
X5533Y300466D01*
X1368Y305464D02*
X4700D01*
X6366Y307131D01*
X4700Y308797D01*
X1368D01*
X2201Y310463D02*
X1368Y311296D01*
Y312962D01*
X2201Y313795D01*
X3034D01*
X3867Y312962D01*
Y312129D01*
Y312962D01*
X4700Y313795D01*
X5533D01*
X6366Y312962D01*
Y311296D01*
X5533Y310463D01*
X64500Y287512D02*
Y292510D01*
X66999D01*
X67832Y291677D01*
Y290011D01*
X66999Y289178D01*
X64500D01*
X66166D02*
X67832Y287512D01*
X69498Y292510D02*
X72831Y287512D01*
Y292510D02*
X69498Y287512D01*
M02*
