G04*
G04 #@! TF.GenerationSoftware,Altium Limited,Altium Designer,20.2.4 (192)*
G04*
G04 Layer_Color=16777215*
%FSLAX44Y44*%
%MOMM*%
G71*
G04*
G04 #@! TF.SameCoordinates,04E9AB2E-1989-4D7A-88AA-1D4CDCA67D46*
G04*
G04*
G04 #@! TF.FilePolarity,Positive*
G04*
G01*
G75*
%ADD16C,0.2540*%
%ADD17C,0.3000*%
%ADD72C,0.5000*%
%ADD82C,0.3810*%
%ADD83C,0.0254*%
%ADD84C,0.7000*%
D16*
X562740Y-329188D02*
X565279Y-326649D01*
X570358D01*
X572897Y-329188D01*
Y-339345D01*
X570358Y-341884D01*
X565279D01*
X562740Y-339345D01*
Y-329188D01*
X580514Y-344423D02*
X583053Y-341884D01*
Y-339345D01*
X580514D01*
Y-341884D01*
X583053D01*
X580514Y-344423D01*
X577975Y-346962D01*
X600828Y-341884D02*
Y-326649D01*
X593210Y-334267D01*
X603367D01*
X608445Y-341884D02*
X613523D01*
X610984D01*
Y-326649D01*
X608445Y-329188D01*
X621141Y-341884D02*
X626219D01*
X623680D01*
Y-326649D01*
X621141Y-329188D01*
X633837Y-341884D02*
Y-331727D01*
X636376D01*
X638915Y-334267D01*
Y-341884D01*
Y-334267D01*
X641454Y-331727D01*
X643994Y-334267D01*
Y-341884D01*
X649072D02*
Y-331727D01*
X651611D01*
X654150Y-334267D01*
Y-341884D01*
Y-334267D01*
X656690Y-331727D01*
X659229Y-334267D01*
Y-341884D01*
X4086Y-326649D02*
X14243D01*
X9165D01*
Y-341884D01*
X21860D02*
X26939D01*
X29478Y-339345D01*
Y-334267D01*
X26939Y-331727D01*
X21860D01*
X19321Y-334267D01*
Y-339345D01*
X21860Y-341884D01*
X37095Y-329188D02*
Y-331727D01*
X34556D01*
X39635D01*
X37095D01*
Y-339345D01*
X39635Y-341884D01*
X49791Y-331727D02*
X54870D01*
X57409Y-334267D01*
Y-341884D01*
X49791D01*
X47252Y-339345D01*
X49791Y-336806D01*
X57409D01*
X62487Y-341884D02*
X67566D01*
X65026D01*
Y-326649D01*
X62487D01*
X90418D02*
Y-341884D01*
X98036D01*
X100575Y-339345D01*
Y-336806D01*
Y-334267D01*
X98036Y-331727D01*
X90418D01*
X108193Y-341884D02*
X113271D01*
X115810Y-339345D01*
Y-334267D01*
X113271Y-331727D01*
X108193D01*
X105653Y-334267D01*
Y-339345D01*
X108193Y-341884D01*
X123428Y-331727D02*
X128506D01*
X131045Y-334267D01*
Y-341884D01*
X123428D01*
X120888Y-339345D01*
X123428Y-336806D01*
X131045D01*
X136124Y-331727D02*
Y-341884D01*
Y-336806D01*
X138663Y-334267D01*
X141202Y-331727D01*
X143741D01*
X161515Y-326649D02*
Y-341884D01*
X153898D01*
X151358Y-339345D01*
Y-334267D01*
X153898Y-331727D01*
X161515D01*
X184368Y-329188D02*
Y-331727D01*
X181829D01*
X186907D01*
X184368D01*
Y-339345D01*
X186907Y-341884D01*
X194525Y-326649D02*
Y-341884D01*
Y-334267D01*
X197064Y-331727D01*
X202142D01*
X204681Y-334267D01*
Y-341884D01*
X209760D02*
X214838D01*
X212299D01*
Y-331727D01*
X209760D01*
X232612D02*
X224995D01*
X222456Y-334267D01*
Y-339345D01*
X224995Y-341884D01*
X232612D01*
X237691D02*
Y-326649D01*
Y-336806D02*
X245308Y-331727D01*
X237691Y-336806D02*
X245308Y-341884D01*
X252926D02*
Y-331727D01*
X260543D01*
X263082Y-334267D01*
Y-341884D01*
X275778D02*
X270700D01*
X268161Y-339345D01*
Y-334267D01*
X270700Y-331727D01*
X275778D01*
X278318Y-334267D01*
Y-336806D01*
X268161D01*
X283396Y-341884D02*
X291013D01*
X293552Y-339345D01*
X291013Y-336806D01*
X285935D01*
X283396Y-334267D01*
X285935Y-331727D01*
X293552D01*
X298631Y-341884D02*
X306248D01*
X308788Y-339345D01*
X306248Y-336806D01*
X301170D01*
X298631Y-334267D01*
X301170Y-331727D01*
X308788D01*
X313866D02*
X316405D01*
Y-334267D01*
X313866D01*
Y-331727D01*
Y-339345D02*
X316405D01*
Y-341884D01*
X313866D01*
Y-339345D01*
X872543Y-82809D02*
Y-98044D01*
X880160D01*
X882700Y-95505D01*
Y-92966D01*
X880160Y-90427D01*
X872543D01*
X880160D01*
X882700Y-87887D01*
Y-85348D01*
X880160Y-82809D01*
X872543D01*
X890317Y-98044D02*
X895395D01*
X897934Y-95505D01*
Y-90427D01*
X895395Y-87887D01*
X890317D01*
X887778Y-90427D01*
Y-95505D01*
X890317Y-98044D01*
X905552Y-87887D02*
X910630D01*
X913170Y-90427D01*
Y-98044D01*
X905552D01*
X903013Y-95505D01*
X905552Y-92966D01*
X913170D01*
X918248Y-87887D02*
Y-98044D01*
Y-92966D01*
X920787Y-90427D01*
X923326Y-87887D01*
X925865D01*
X943640Y-82809D02*
Y-98044D01*
X936022D01*
X933483Y-95505D01*
Y-90427D01*
X936022Y-87887D01*
X943640D01*
X963953Y-82809D02*
Y-98044D01*
X974110D01*
X981727Y-87887D02*
X986806D01*
X989345Y-90427D01*
Y-98044D01*
X981727D01*
X979188Y-95505D01*
X981727Y-92966D01*
X989345D01*
X994423Y-87887D02*
Y-95505D01*
X996963Y-98044D01*
X1004580D01*
Y-100583D01*
X1002041Y-103122D01*
X999502D01*
X1004580Y-98044D02*
Y-87887D01*
X1017276Y-98044D02*
X1012198D01*
X1009658Y-95505D01*
Y-90427D01*
X1012198Y-87887D01*
X1017276D01*
X1019815Y-90427D01*
Y-92966D01*
X1009658D01*
X1024893Y-87887D02*
Y-98044D01*
Y-92966D01*
X1027433Y-90427D01*
X1029972Y-87887D01*
X1032511D01*
X1065520Y-85348D02*
X1062981Y-82809D01*
X1057903D01*
X1055364Y-85348D01*
Y-87887D01*
X1057903Y-90427D01*
X1062981D01*
X1065520Y-92966D01*
Y-95505D01*
X1062981Y-98044D01*
X1057903D01*
X1055364Y-95505D01*
X1073138Y-85348D02*
Y-87887D01*
X1070599D01*
X1075677D01*
X1073138D01*
Y-95505D01*
X1075677Y-98044D01*
X1085834Y-87887D02*
X1090912D01*
X1093451Y-90427D01*
Y-98044D01*
X1085834D01*
X1083295Y-95505D01*
X1085834Y-92966D01*
X1093451D01*
X1108686Y-87887D02*
X1101069D01*
X1098530Y-90427D01*
Y-95505D01*
X1101069Y-98044D01*
X1108686D01*
X1113765D02*
Y-82809D01*
Y-92966D02*
X1121382Y-87887D01*
X1113765Y-92966D02*
X1121382Y-98044D01*
X727798Y-146308D02*
X730337Y-143769D01*
X735416D01*
X737955Y-146308D01*
Y-148847D01*
X735416Y-151386D01*
X732876D01*
X735416D01*
X737955Y-153926D01*
Y-156465D01*
X735416Y-159004D01*
X730337D01*
X727798Y-156465D01*
X745572Y-161543D02*
X748111Y-159004D01*
Y-156465D01*
X745572D01*
Y-159004D01*
X748111D01*
X745572Y-161543D01*
X743033Y-164082D01*
X768425Y-143769D02*
X758268D01*
Y-151386D01*
X763347Y-148847D01*
X765886D01*
X768425Y-151386D01*
Y-156465D01*
X765886Y-159004D01*
X760807D01*
X758268Y-156465D01*
X735416Y-219964D02*
Y-204729D01*
X727798Y-212346D01*
X737955D01*
X745572Y-222503D02*
X748111Y-219964D01*
Y-217425D01*
X745572D01*
Y-219964D01*
X748111D01*
X745572Y-222503D01*
X743033Y-225042D01*
X758268Y-207268D02*
X760807Y-204729D01*
X765886D01*
X768425Y-207268D01*
Y-209807D01*
X765886Y-212346D01*
X768425Y-214886D01*
Y-217425D01*
X765886Y-219964D01*
X760807D01*
X758268Y-217425D01*
Y-214886D01*
X760807Y-212346D01*
X758268Y-209807D01*
Y-207268D01*
X760807Y-212346D02*
X765886D01*
X727798Y-268228D02*
X730337Y-265689D01*
X735416D01*
X737955Y-268228D01*
Y-270767D01*
X735416Y-273307D01*
X732876D01*
X735416D01*
X737955Y-275846D01*
Y-278385D01*
X735416Y-280924D01*
X730337D01*
X727798Y-278385D01*
X745572Y-283463D02*
X748111Y-280924D01*
Y-278385D01*
X745572D01*
Y-280924D01*
X748111D01*
X745572Y-283463D01*
X743033Y-286002D01*
X768425Y-265689D02*
X758268D01*
Y-273307D01*
X763347Y-270767D01*
X765886D01*
X768425Y-273307D01*
Y-278385D01*
X765886Y-280924D01*
X760807D01*
X758268Y-278385D01*
X737955Y-85348D02*
X735416Y-82809D01*
X730337D01*
X727798Y-85348D01*
Y-95505D01*
X730337Y-98044D01*
X735416D01*
X737955Y-95505D01*
X745572Y-98044D02*
X750651D01*
X753190Y-95505D01*
Y-90427D01*
X750651Y-87887D01*
X745572D01*
X743033Y-90427D01*
Y-95505D01*
X745572Y-98044D01*
X758268D02*
Y-87887D01*
X765886D01*
X768425Y-90427D01*
Y-98044D01*
X773503D02*
X781121D01*
X783660Y-95505D01*
X781121Y-92966D01*
X776042D01*
X773503Y-90427D01*
X776042Y-87887D01*
X783660D01*
X791277Y-85348D02*
Y-87887D01*
X788738D01*
X793817D01*
X791277D01*
Y-95505D01*
X793817Y-98044D01*
X803973Y-87887D02*
X809052D01*
X811591Y-90427D01*
Y-98044D01*
X803973D01*
X801434Y-95505D01*
X803973Y-92966D01*
X811591D01*
X816669Y-98044D02*
Y-87887D01*
X824287D01*
X826826Y-90427D01*
Y-98044D01*
X834444Y-85348D02*
Y-87887D01*
X831904D01*
X836983D01*
X834444D01*
Y-95505D01*
X836983Y-98044D01*
X562740Y-146308D02*
X565279Y-143769D01*
X570358D01*
X572897Y-146308D01*
Y-156465D01*
X570358Y-159004D01*
X565279D01*
X562740Y-156465D01*
Y-146308D01*
X580514Y-161543D02*
X583053Y-159004D01*
Y-156465D01*
X580514D01*
Y-159004D01*
X583053D01*
X580514Y-161543D01*
X577975Y-164082D01*
X593210Y-146308D02*
X595749Y-143769D01*
X600828D01*
X603367Y-146308D01*
Y-156465D01*
X600828Y-159004D01*
X595749D01*
X593210Y-156465D01*
Y-146308D01*
X608445Y-159004D02*
X613523D01*
X610984D01*
Y-143769D01*
X608445Y-146308D01*
X621141D02*
X623680Y-143769D01*
X628759D01*
X631298Y-146308D01*
Y-156465D01*
X628759Y-159004D01*
X623680D01*
X621141Y-156465D01*
Y-146308D01*
X636376Y-159004D02*
Y-148847D01*
X638915D01*
X641454Y-151386D01*
Y-159004D01*
Y-151386D01*
X643994Y-148847D01*
X646533Y-151386D01*
Y-159004D01*
X651611D02*
Y-148847D01*
X654150D01*
X656690Y-151386D01*
Y-159004D01*
Y-151386D01*
X659229Y-148847D01*
X661768Y-151386D01*
Y-159004D01*
X562740Y-176788D02*
X565279Y-174249D01*
X570358D01*
X572897Y-176788D01*
Y-186945D01*
X570358Y-189484D01*
X565279D01*
X562740Y-186945D01*
Y-176788D01*
X580514Y-192023D02*
X583053Y-189484D01*
Y-186945D01*
X580514D01*
Y-189484D01*
X583053D01*
X580514Y-192023D01*
X577975Y-194562D01*
X593210Y-176788D02*
X595749Y-174249D01*
X600828D01*
X603367Y-176788D01*
Y-186945D01*
X600828Y-189484D01*
X595749D01*
X593210Y-186945D01*
Y-176788D01*
X608445D02*
X610984Y-174249D01*
X616063D01*
X618602Y-176788D01*
Y-179327D01*
X616063Y-181866D01*
X613523D01*
X616063D01*
X618602Y-184406D01*
Y-186945D01*
X616063Y-189484D01*
X610984D01*
X608445Y-186945D01*
X633837Y-174249D02*
X628759Y-176788D01*
X623680Y-181866D01*
Y-186945D01*
X626219Y-189484D01*
X631298D01*
X633837Y-186945D01*
Y-184406D01*
X631298Y-181866D01*
X623680D01*
X638915Y-189484D02*
Y-179327D01*
X641454D01*
X643994Y-181866D01*
Y-189484D01*
Y-181866D01*
X646533Y-179327D01*
X649072Y-181866D01*
Y-189484D01*
X654150D02*
Y-179327D01*
X656690D01*
X659229Y-181866D01*
Y-189484D01*
Y-181866D01*
X661768Y-179327D01*
X664307Y-181866D01*
Y-189484D01*
X562740Y-207268D02*
X565279Y-204729D01*
X570358D01*
X572897Y-207268D01*
Y-217425D01*
X570358Y-219964D01*
X565279D01*
X562740Y-217425D01*
Y-207268D01*
X580514Y-222503D02*
X583053Y-219964D01*
Y-217425D01*
X580514D01*
Y-219964D01*
X583053D01*
X580514Y-222503D01*
X577975Y-225042D01*
X593210Y-207268D02*
X595749Y-204729D01*
X600828D01*
X603367Y-207268D01*
Y-209807D01*
X600828Y-212346D01*
X598288D01*
X600828D01*
X603367Y-214886D01*
Y-217425D01*
X600828Y-219964D01*
X595749D01*
X593210Y-217425D01*
X618602Y-219964D02*
X608445D01*
X618602Y-209807D01*
Y-207268D01*
X616063Y-204729D01*
X610984D01*
X608445Y-207268D01*
X623680D02*
X626219Y-204729D01*
X631298D01*
X633837Y-207268D01*
Y-217425D01*
X631298Y-219964D01*
X626219D01*
X623680Y-217425D01*
Y-207268D01*
X638915Y-219964D02*
Y-209807D01*
X641454D01*
X643994Y-212346D01*
Y-219964D01*
Y-212346D01*
X646533Y-209807D01*
X649072Y-212346D01*
Y-219964D01*
X654150D02*
Y-209807D01*
X656690D01*
X659229Y-212346D01*
Y-219964D01*
Y-212346D01*
X661768Y-209807D01*
X664307Y-212346D01*
Y-219964D01*
X562740Y-237748D02*
X565279Y-235209D01*
X570358D01*
X572897Y-237748D01*
Y-247905D01*
X570358Y-250444D01*
X565279D01*
X562740Y-247905D01*
Y-237748D01*
X580514Y-252983D02*
X583053Y-250444D01*
Y-247905D01*
X580514D01*
Y-250444D01*
X583053D01*
X580514Y-252983D01*
X577975Y-255522D01*
X593210Y-237748D02*
X595749Y-235209D01*
X600828D01*
X603367Y-237748D01*
Y-247905D01*
X600828Y-250444D01*
X595749D01*
X593210Y-247905D01*
Y-237748D01*
X608445D02*
X610984Y-235209D01*
X616063D01*
X618602Y-237748D01*
Y-240287D01*
X616063Y-242826D01*
X613523D01*
X616063D01*
X618602Y-245366D01*
Y-247905D01*
X616063Y-250444D01*
X610984D01*
X608445Y-247905D01*
X633837Y-235209D02*
X628759Y-237748D01*
X623680Y-242826D01*
Y-247905D01*
X626219Y-250444D01*
X631298D01*
X633837Y-247905D01*
Y-245366D01*
X631298Y-242826D01*
X623680D01*
X638915Y-250444D02*
Y-240287D01*
X641454D01*
X643994Y-242826D01*
Y-250444D01*
Y-242826D01*
X646533Y-240287D01*
X649072Y-242826D01*
Y-250444D01*
X654150D02*
Y-240287D01*
X656690D01*
X659229Y-242826D01*
Y-250444D01*
Y-242826D01*
X661768Y-240287D01*
X664307Y-242826D01*
Y-250444D01*
X562740Y-268228D02*
X565279Y-265689D01*
X570358D01*
X572897Y-268228D01*
Y-278385D01*
X570358Y-280924D01*
X565279D01*
X562740Y-278385D01*
Y-268228D01*
X580514Y-283463D02*
X583053Y-280924D01*
Y-278385D01*
X580514D01*
Y-280924D01*
X583053D01*
X580514Y-283463D01*
X577975Y-286002D01*
X593210Y-268228D02*
X595749Y-265689D01*
X600828D01*
X603367Y-268228D01*
Y-278385D01*
X600828Y-280924D01*
X595749D01*
X593210Y-278385D01*
Y-268228D01*
X608445Y-280924D02*
X613523D01*
X610984D01*
Y-265689D01*
X608445Y-268228D01*
X621141D02*
X623680Y-265689D01*
X628759D01*
X631298Y-268228D01*
Y-278385D01*
X628759Y-280924D01*
X623680D01*
X621141Y-278385D01*
Y-268228D01*
X636376Y-280924D02*
Y-270767D01*
X638915D01*
X641454Y-273307D01*
Y-280924D01*
Y-273307D01*
X643994Y-270767D01*
X646533Y-273307D01*
Y-280924D01*
X651611D02*
Y-270767D01*
X654150D01*
X656690Y-273307D01*
Y-280924D01*
Y-273307D01*
X659229Y-270767D01*
X661768Y-273307D01*
Y-280924D01*
X562740Y-82809D02*
X572897D01*
X567818D01*
Y-98044D01*
X577975Y-82809D02*
Y-98044D01*
Y-90427D01*
X580514Y-87887D01*
X585593D01*
X588132Y-90427D01*
Y-98044D01*
X593210D02*
X598288D01*
X595749D01*
Y-87887D01*
X593210D01*
X616063D02*
X608445D01*
X605906Y-90427D01*
Y-95505D01*
X608445Y-98044D01*
X616063D01*
X621141D02*
Y-82809D01*
Y-92966D02*
X628759Y-87887D01*
X621141Y-92966D02*
X628759Y-98044D01*
X636376D02*
Y-87887D01*
X643994D01*
X646533Y-90427D01*
Y-98044D01*
X659229D02*
X654150D01*
X651611Y-95505D01*
Y-90427D01*
X654150Y-87887D01*
X659229D01*
X661768Y-90427D01*
Y-92966D01*
X651611D01*
X666846Y-98044D02*
X674464D01*
X677003Y-95505D01*
X674464Y-92966D01*
X669386D01*
X666846Y-90427D01*
X669386Y-87887D01*
X677003D01*
X682081Y-98044D02*
X689699D01*
X692238Y-95505D01*
X689699Y-92966D01*
X684621D01*
X682081Y-90427D01*
X684621Y-87887D01*
X692238D01*
X354516Y-146308D02*
X351977Y-143769D01*
X346898D01*
X344359Y-146308D01*
Y-148847D01*
X346898Y-151386D01*
X351977D01*
X354516Y-153926D01*
Y-156465D01*
X351977Y-159004D01*
X346898D01*
X344359Y-156465D01*
X362133Y-159004D02*
X367212D01*
X369751Y-156465D01*
Y-151386D01*
X367212Y-148847D01*
X362133D01*
X359594Y-151386D01*
Y-156465D01*
X362133Y-159004D01*
X374829D02*
X379908D01*
X377368D01*
Y-143769D01*
X374829D01*
X397682D02*
Y-159004D01*
X390064D01*
X387525Y-156465D01*
Y-151386D01*
X390064Y-148847D01*
X397682D01*
X410378Y-159004D02*
X405299D01*
X402760Y-156465D01*
Y-151386D01*
X405299Y-148847D01*
X410378D01*
X412917Y-151386D01*
Y-153926D01*
X402760D01*
X417995Y-148847D02*
Y-159004D01*
Y-153926D01*
X420535Y-151386D01*
X423074Y-148847D01*
X425613D01*
X448465Y-159004D02*
Y-143769D01*
X456083D01*
X458622Y-146308D01*
Y-151386D01*
X456083Y-153926D01*
X448465D01*
X453544D02*
X458622Y-159004D01*
X471318D02*
X466240D01*
X463700Y-156465D01*
Y-151386D01*
X466240Y-148847D01*
X471318D01*
X473857Y-151386D01*
Y-153926D01*
X463700D01*
X478936Y-159004D02*
X486553D01*
X489092Y-156465D01*
X486553Y-153926D01*
X481475D01*
X478936Y-151386D01*
X481475Y-148847D01*
X489092D01*
X494171Y-159004D02*
X499249D01*
X496710D01*
Y-148847D01*
X494171D01*
X506866Y-159004D02*
X514484D01*
X517023Y-156465D01*
X514484Y-153926D01*
X509406D01*
X506866Y-151386D01*
X509406Y-148847D01*
X517023D01*
X524641Y-146308D02*
Y-148847D01*
X522102D01*
X527180D01*
X524641D01*
Y-156465D01*
X527180Y-159004D01*
X354516Y-176788D02*
X351977Y-174249D01*
X346898D01*
X344359Y-176788D01*
Y-186945D01*
X346898Y-189484D01*
X351977D01*
X354516Y-186945D01*
X362133Y-189484D02*
X367212D01*
X369751Y-186945D01*
Y-181866D01*
X367212Y-179327D01*
X362133D01*
X359594Y-181866D01*
Y-186945D01*
X362133Y-189484D01*
X374829Y-194562D02*
Y-179327D01*
X382447D01*
X384986Y-181866D01*
Y-186945D01*
X382447Y-189484D01*
X374829D01*
X390064Y-194562D02*
Y-179327D01*
X397682D01*
X400221Y-181866D01*
Y-186945D01*
X397682Y-189484D01*
X390064D01*
X412917D02*
X407839D01*
X405299Y-186945D01*
Y-181866D01*
X407839Y-179327D01*
X412917D01*
X415456Y-181866D01*
Y-184406D01*
X405299D01*
X420535Y-179327D02*
Y-189484D01*
Y-184406D01*
X423074Y-181866D01*
X425613Y-179327D01*
X428152D01*
X354516Y-204729D02*
X344359D01*
Y-212346D01*
X349437D01*
X344359D01*
Y-219964D01*
X359594D02*
Y-204729D01*
X367212D01*
X369751Y-207268D01*
Y-212346D01*
X367212Y-214886D01*
X359594D01*
X364673D02*
X369751Y-219964D01*
X374829Y-212346D02*
X384986D01*
X397682Y-219964D02*
Y-204729D01*
X390064Y-212346D01*
X400221D01*
X354516Y-237748D02*
X351977Y-235209D01*
X346898D01*
X344359Y-237748D01*
Y-247905D01*
X346898Y-250444D01*
X351977D01*
X354516Y-247905D01*
X362133Y-250444D02*
X367212D01*
X369751Y-247905D01*
Y-242826D01*
X367212Y-240287D01*
X362133D01*
X359594Y-242826D01*
Y-247905D01*
X362133Y-250444D01*
X374829Y-255522D02*
Y-240287D01*
X382447D01*
X384986Y-242826D01*
Y-247905D01*
X382447Y-250444D01*
X374829D01*
X390064Y-255522D02*
Y-240287D01*
X397682D01*
X400221Y-242826D01*
Y-247905D01*
X397682Y-250444D01*
X390064D01*
X412917D02*
X407839D01*
X405299Y-247905D01*
Y-242826D01*
X407839Y-240287D01*
X412917D01*
X415456Y-242826D01*
Y-245366D01*
X405299D01*
X420535Y-240287D02*
Y-250444D01*
Y-245366D01*
X423074Y-242826D01*
X425613Y-240287D01*
X428152D01*
X354516Y-268228D02*
X351977Y-265689D01*
X346898D01*
X344359Y-268228D01*
Y-270767D01*
X346898Y-273307D01*
X351977D01*
X354516Y-275846D01*
Y-278385D01*
X351977Y-280924D01*
X346898D01*
X344359Y-278385D01*
X362133Y-280924D02*
X367212D01*
X369751Y-278385D01*
Y-273307D01*
X367212Y-270767D01*
X362133D01*
X359594Y-273307D01*
Y-278385D01*
X362133Y-280924D01*
X374829D02*
X379908D01*
X377368D01*
Y-265689D01*
X374829D01*
X397682D02*
Y-280924D01*
X390064D01*
X387525Y-278385D01*
Y-273307D01*
X390064Y-270767D01*
X397682D01*
X410378Y-280924D02*
X405299D01*
X402760Y-278385D01*
Y-273307D01*
X405299Y-270767D01*
X410378D01*
X412917Y-273307D01*
Y-275846D01*
X402760D01*
X417995Y-270767D02*
Y-280924D01*
Y-275846D01*
X420535Y-273307D01*
X423074Y-270767D01*
X425613D01*
X448465Y-280924D02*
Y-265689D01*
X456083D01*
X458622Y-268228D01*
Y-273307D01*
X456083Y-275846D01*
X448465D01*
X453544D02*
X458622Y-280924D01*
X471318D02*
X466240D01*
X463700Y-278385D01*
Y-273307D01*
X466240Y-270767D01*
X471318D01*
X473857Y-273307D01*
Y-275846D01*
X463700D01*
X478936Y-280924D02*
X486553D01*
X489092Y-278385D01*
X486553Y-275846D01*
X481475D01*
X478936Y-273307D01*
X481475Y-270767D01*
X489092D01*
X494171Y-280924D02*
X499249D01*
X496710D01*
Y-270767D01*
X494171D01*
X506866Y-280924D02*
X514484D01*
X517023Y-278385D01*
X514484Y-275846D01*
X509406D01*
X506866Y-273307D01*
X509406Y-270767D01*
X517023D01*
X524641Y-268228D02*
Y-270767D01*
X522102D01*
X527180D01*
X524641D01*
Y-278385D01*
X527180Y-280924D01*
X344359Y-98044D02*
Y-82809D01*
X349437Y-87887D01*
X354516Y-82809D01*
Y-98044D01*
X362133Y-87887D02*
X367212D01*
X369751Y-90427D01*
Y-98044D01*
X362133D01*
X359594Y-95505D01*
X362133Y-92966D01*
X369751D01*
X377368Y-85348D02*
Y-87887D01*
X374829D01*
X379908D01*
X377368D01*
Y-95505D01*
X379908Y-98044D01*
X395143D02*
X390064D01*
X387525Y-95505D01*
Y-90427D01*
X390064Y-87887D01*
X395143D01*
X397682Y-90427D01*
Y-92966D01*
X387525D01*
X402760Y-87887D02*
Y-98044D01*
Y-92966D01*
X405299Y-90427D01*
X407839Y-87887D01*
X410378D01*
X417995Y-98044D02*
X423074D01*
X420535D01*
Y-87887D01*
X417995D01*
X433230D02*
X438309D01*
X440848Y-90427D01*
Y-98044D01*
X433230D01*
X430691Y-95505D01*
X433230Y-92966D01*
X440848D01*
X445926Y-98044D02*
X451005D01*
X448465D01*
Y-82809D01*
X445926D01*
X108204Y-113289D02*
X118361D01*
X113282D01*
Y-128524D01*
X125978D02*
X131057D01*
X133596Y-125985D01*
Y-120906D01*
X131057Y-118367D01*
X125978D01*
X123439Y-120906D01*
Y-125985D01*
X125978Y-128524D01*
X138674Y-133602D02*
Y-118367D01*
X146292D01*
X148831Y-120906D01*
Y-125985D01*
X146292Y-128524D01*
X138674D01*
X176762Y-113289D02*
X171684D01*
X169144Y-115828D01*
Y-125985D01*
X171684Y-128524D01*
X176762D01*
X179301Y-125985D01*
Y-115828D01*
X176762Y-113289D01*
X184379Y-118367D02*
X189458Y-128524D01*
X194536Y-118367D01*
X207232Y-128524D02*
X202154D01*
X199614Y-125985D01*
Y-120906D01*
X202154Y-118367D01*
X207232D01*
X209771Y-120906D01*
Y-123446D01*
X199614D01*
X214849Y-118367D02*
Y-128524D01*
Y-123446D01*
X217389Y-120906D01*
X219928Y-118367D01*
X222467D01*
X230085Y-128524D02*
X235163D01*
X232624D01*
Y-113289D01*
X230085D01*
X245320Y-118367D02*
X250398D01*
X252937Y-120906D01*
Y-128524D01*
X245320D01*
X242780Y-125985D01*
X245320Y-123446D01*
X252937D01*
X258015Y-118367D02*
Y-125985D01*
X260555Y-128524D01*
X268172D01*
Y-131063D01*
X265633Y-133602D01*
X263094D01*
X268172Y-128524D02*
Y-118367D01*
X108204Y-143769D02*
X118361D01*
X113282D01*
Y-159004D01*
X125978D02*
X131057D01*
X133596Y-156465D01*
Y-151386D01*
X131057Y-148847D01*
X125978D01*
X123439Y-151386D01*
Y-156465D01*
X125978Y-159004D01*
X138674Y-164082D02*
Y-148847D01*
X146292D01*
X148831Y-151386D01*
Y-156465D01*
X146292Y-159004D01*
X138674D01*
X179301Y-146308D02*
X176762Y-143769D01*
X171684D01*
X169144Y-146308D01*
Y-148847D01*
X171684Y-151386D01*
X176762D01*
X179301Y-153926D01*
Y-156465D01*
X176762Y-159004D01*
X171684D01*
X169144Y-156465D01*
X186919Y-159004D02*
X191997D01*
X194536Y-156465D01*
Y-151386D01*
X191997Y-148847D01*
X186919D01*
X184379Y-151386D01*
Y-156465D01*
X186919Y-159004D01*
X199614D02*
X204693D01*
X202154D01*
Y-143769D01*
X199614D01*
X222467D02*
Y-159004D01*
X214849D01*
X212310Y-156465D01*
Y-151386D01*
X214849Y-148847D01*
X222467D01*
X235163Y-159004D02*
X230085D01*
X227545Y-156465D01*
Y-151386D01*
X230085Y-148847D01*
X235163D01*
X237702Y-151386D01*
Y-153926D01*
X227545D01*
X242780Y-148847D02*
Y-159004D01*
Y-153926D01*
X245320Y-151386D01*
X247859Y-148847D01*
X250398D01*
X108204Y-174249D02*
X118361D01*
X113282D01*
Y-189484D01*
X125978D02*
X131057D01*
X133596Y-186945D01*
Y-181866D01*
X131057Y-179327D01*
X125978D01*
X123439Y-181866D01*
Y-186945D01*
X125978Y-189484D01*
X138674Y-194562D02*
Y-179327D01*
X146292D01*
X148831Y-181866D01*
Y-186945D01*
X146292Y-189484D01*
X138674D01*
X169144Y-174249D02*
Y-189484D01*
X179301D01*
X186919Y-179327D02*
X191997D01*
X194536Y-181866D01*
Y-189484D01*
X186919D01*
X184379Y-186945D01*
X186919Y-184406D01*
X194536D01*
X199614Y-179327D02*
Y-186945D01*
X202154Y-189484D01*
X209771D01*
Y-192023D01*
X207232Y-194562D01*
X204693D01*
X209771Y-189484D02*
Y-179327D01*
X222467Y-189484D02*
X217389D01*
X214849Y-186945D01*
Y-181866D01*
X217389Y-179327D01*
X222467D01*
X225006Y-181866D01*
Y-184406D01*
X214849D01*
X230085Y-179327D02*
Y-189484D01*
Y-184406D01*
X232624Y-181866D01*
X235163Y-179327D01*
X237702D01*
X108204Y-204729D02*
Y-219964D01*
X115822D01*
X118361Y-217425D01*
Y-207268D01*
X115822Y-204729D01*
X108204D01*
X123439Y-219964D02*
X128517D01*
X125978D01*
Y-209807D01*
X123439D01*
X143752Y-219964D02*
X138674D01*
X136135Y-217425D01*
Y-212346D01*
X138674Y-209807D01*
X143752D01*
X146292Y-212346D01*
Y-214886D01*
X136135D01*
X151370Y-219964D02*
X156448D01*
X153909D01*
Y-204729D01*
X151370D01*
X171684Y-219964D02*
X166605D01*
X164066Y-217425D01*
Y-212346D01*
X166605Y-209807D01*
X171684D01*
X174223Y-212346D01*
Y-214886D01*
X164066D01*
X189458Y-209807D02*
X181840D01*
X179301Y-212346D01*
Y-217425D01*
X181840Y-219964D01*
X189458D01*
X197075Y-207268D02*
Y-209807D01*
X194536D01*
X199614D01*
X197075D01*
Y-217425D01*
X199614Y-219964D01*
X207232Y-209807D02*
Y-219964D01*
Y-214886D01*
X209771Y-212346D01*
X212310Y-209807D01*
X214849D01*
X222467Y-219964D02*
X227545D01*
X225006D01*
Y-209807D01*
X222467D01*
X245320D02*
X237702D01*
X235163Y-212346D01*
Y-217425D01*
X237702Y-219964D01*
X245320D01*
X265633D02*
X270711D01*
X268172D01*
Y-204729D01*
X265633Y-207268D01*
X108204Y-235209D02*
Y-250444D01*
X115822D01*
X118361Y-247905D01*
Y-245366D01*
X115822Y-242826D01*
X108204D01*
X115822D01*
X118361Y-240287D01*
Y-237748D01*
X115822Y-235209D01*
X108204D01*
X125978Y-250444D02*
X131057D01*
X133596Y-247905D01*
Y-242826D01*
X131057Y-240287D01*
X125978D01*
X123439Y-242826D01*
Y-247905D01*
X125978Y-250444D01*
X141213Y-237748D02*
Y-240287D01*
X138674D01*
X143752D01*
X141213D01*
Y-247905D01*
X143752Y-250444D01*
X153909Y-237748D02*
Y-240287D01*
X151370D01*
X156448D01*
X153909D01*
Y-247905D01*
X156448Y-250444D01*
X166605D02*
X171684D01*
X174223Y-247905D01*
Y-242826D01*
X171684Y-240287D01*
X166605D01*
X164066Y-242826D01*
Y-247905D01*
X166605Y-250444D01*
X179301D02*
Y-240287D01*
X181840D01*
X184379Y-242826D01*
Y-250444D01*
Y-242826D01*
X186919Y-240287D01*
X189458Y-242826D01*
Y-250444D01*
X209771Y-235209D02*
Y-250444D01*
X219928D01*
X227545Y-240287D02*
X232624D01*
X235163Y-242826D01*
Y-250444D01*
X227545D01*
X225006Y-247905D01*
X227545Y-245366D01*
X235163D01*
X240241Y-240287D02*
Y-247905D01*
X242780Y-250444D01*
X250398D01*
Y-252983D01*
X247859Y-255522D01*
X245320D01*
X250398Y-250444D02*
Y-240287D01*
X263094Y-250444D02*
X258015D01*
X255476Y-247905D01*
Y-242826D01*
X258015Y-240287D01*
X263094D01*
X265633Y-242826D01*
Y-245366D01*
X255476D01*
X270711Y-240287D02*
Y-250444D01*
Y-245366D01*
X273251Y-242826D01*
X275790Y-240287D01*
X278329D01*
X108204Y-265689D02*
Y-280924D01*
X115822D01*
X118361Y-278385D01*
Y-275846D01*
X115822Y-273307D01*
X108204D01*
X115822D01*
X118361Y-270767D01*
Y-268228D01*
X115822Y-265689D01*
X108204D01*
X125978Y-280924D02*
X131057D01*
X133596Y-278385D01*
Y-273307D01*
X131057Y-270767D01*
X125978D01*
X123439Y-273307D01*
Y-278385D01*
X125978Y-280924D01*
X141213Y-268228D02*
Y-270767D01*
X138674D01*
X143752D01*
X141213D01*
Y-278385D01*
X143752Y-280924D01*
X153909Y-268228D02*
Y-270767D01*
X151370D01*
X156448D01*
X153909D01*
Y-278385D01*
X156448Y-280924D01*
X166605D02*
X171684D01*
X174223Y-278385D01*
Y-273307D01*
X171684Y-270767D01*
X166605D01*
X164066Y-273307D01*
Y-278385D01*
X166605Y-280924D01*
X179301D02*
Y-270767D01*
X181840D01*
X184379Y-273307D01*
Y-280924D01*
Y-273307D01*
X186919Y-270767D01*
X189458Y-273307D01*
Y-280924D01*
X219928Y-268228D02*
X217389Y-265689D01*
X212310D01*
X209771Y-268228D01*
Y-270767D01*
X212310Y-273307D01*
X217389D01*
X219928Y-275846D01*
Y-278385D01*
X217389Y-280924D01*
X212310D01*
X209771Y-278385D01*
X227545Y-280924D02*
X232624D01*
X235163Y-278385D01*
Y-273307D01*
X232624Y-270767D01*
X227545D01*
X225006Y-273307D01*
Y-278385D01*
X227545Y-280924D01*
X240241D02*
X245320D01*
X242780D01*
Y-265689D01*
X240241D01*
X263094D02*
Y-280924D01*
X255476D01*
X252937Y-278385D01*
Y-273307D01*
X255476Y-270767D01*
X263094D01*
X275790Y-280924D02*
X270711D01*
X268172Y-278385D01*
Y-273307D01*
X270711Y-270767D01*
X275790D01*
X278329Y-273307D01*
Y-275846D01*
X268172D01*
X283407Y-270767D02*
Y-280924D01*
Y-275846D01*
X285947Y-273307D01*
X288486Y-270767D01*
X291025D01*
X108204Y-296169D02*
Y-311404D01*
X115822D01*
X118361Y-308865D01*
Y-306326D01*
X115822Y-303787D01*
X108204D01*
X115822D01*
X118361Y-301247D01*
Y-298708D01*
X115822Y-296169D01*
X108204D01*
X125978Y-311404D02*
X131057D01*
X133596Y-308865D01*
Y-303787D01*
X131057Y-301247D01*
X125978D01*
X123439Y-303787D01*
Y-308865D01*
X125978Y-311404D01*
X141213Y-298708D02*
Y-301247D01*
X138674D01*
X143752D01*
X141213D01*
Y-308865D01*
X143752Y-311404D01*
X153909Y-298708D02*
Y-301247D01*
X151370D01*
X156448D01*
X153909D01*
Y-308865D01*
X156448Y-311404D01*
X166605D02*
X171684D01*
X174223Y-308865D01*
Y-303787D01*
X171684Y-301247D01*
X166605D01*
X164066Y-303787D01*
Y-308865D01*
X166605Y-311404D01*
X179301D02*
Y-301247D01*
X181840D01*
X184379Y-303787D01*
Y-311404D01*
Y-303787D01*
X186919Y-301247D01*
X189458Y-303787D01*
Y-311404D01*
X217389Y-296169D02*
X212310D01*
X209771Y-298708D01*
Y-308865D01*
X212310Y-311404D01*
X217389D01*
X219928Y-308865D01*
Y-298708D01*
X217389Y-296169D01*
X225006Y-301247D02*
X230085Y-311404D01*
X235163Y-301247D01*
X247859Y-311404D02*
X242780D01*
X240241Y-308865D01*
Y-303787D01*
X242780Y-301247D01*
X247859D01*
X250398Y-303787D01*
Y-306326D01*
X240241D01*
X255476Y-301247D02*
Y-311404D01*
Y-306326D01*
X258015Y-303787D01*
X260555Y-301247D01*
X263094D01*
X270711Y-311404D02*
X275790D01*
X273251D01*
Y-296169D01*
X270711D01*
X285947Y-301247D02*
X291025D01*
X293564Y-303787D01*
Y-311404D01*
X285947D01*
X283407Y-308865D01*
X285947Y-306326D01*
X293564D01*
X298642Y-301247D02*
Y-308865D01*
X301182Y-311404D01*
X308799D01*
Y-313943D01*
X306260Y-316482D01*
X303721D01*
X308799Y-311404D02*
Y-301247D01*
X108204Y-98044D02*
Y-82809D01*
X118361Y-98044D01*
Y-82809D01*
X125978Y-87887D02*
X131057D01*
X133596Y-90427D01*
Y-98044D01*
X125978D01*
X123439Y-95505D01*
X125978Y-92966D01*
X133596D01*
X138674Y-98044D02*
Y-87887D01*
X141213D01*
X143752Y-90427D01*
Y-98044D01*
Y-90427D01*
X146292Y-87887D01*
X148831Y-90427D01*
Y-98044D01*
X161527D02*
X156448D01*
X153909Y-95505D01*
Y-90427D01*
X156448Y-87887D01*
X161527D01*
X164066Y-90427D01*
Y-92966D01*
X153909D01*
X4086Y-189484D02*
X9165D01*
X6625D01*
Y-174249D01*
X4086Y-176788D01*
X14243Y-250444D02*
X4086D01*
X14243Y-240287D01*
Y-237748D01*
X11704Y-235209D01*
X6625D01*
X4086Y-237748D01*
Y-82809D02*
Y-98044D01*
X14243D01*
X21860Y-87887D02*
X26939D01*
X29478Y-90427D01*
Y-98044D01*
X21860D01*
X19321Y-95505D01*
X21860Y-92966D01*
X29478D01*
X34556Y-87887D02*
Y-95505D01*
X37095Y-98044D01*
X44713D01*
Y-100583D01*
X42174Y-103122D01*
X39635D01*
X44713Y-98044D02*
Y-87887D01*
X57409Y-98044D02*
X52331D01*
X49791Y-95505D01*
Y-90427D01*
X52331Y-87887D01*
X57409D01*
X59948Y-90427D01*
Y-92966D01*
X49791D01*
X65026Y-87887D02*
Y-98044D01*
Y-92966D01*
X67566Y-90427D01*
X70105Y-87887D01*
X72644D01*
D17*
X608156Y-21293D02*
X605657Y-23792D01*
Y-28791D01*
X608156Y-31290D01*
X618152D01*
X620652Y-28791D01*
Y-23792D01*
X618152Y-21293D01*
X620652Y-13796D02*
Y-8797D01*
X618152Y-6298D01*
X613154D01*
X610655Y-8797D01*
Y-13796D01*
X613154Y-16295D01*
X618152D01*
X620652Y-13796D01*
Y-1300D02*
X610655D01*
Y6198D01*
X613154Y8697D01*
X620652D01*
X608156Y16195D02*
X610655D01*
Y13695D01*
Y18694D01*
Y16195D01*
X618152D01*
X620652Y18694D01*
X610655Y28691D02*
Y33689D01*
X613154Y36188D01*
X620652D01*
Y28691D01*
X618152Y26191D01*
X615653Y28691D01*
Y36188D01*
X610655Y51183D02*
Y43686D01*
X613154Y41186D01*
X618152D01*
X620652Y43686D01*
Y51183D01*
X608156Y58681D02*
X610655D01*
Y56182D01*
Y61180D01*
Y58681D01*
X618152D01*
X620652Y61180D01*
X610655Y68678D02*
Y71177D01*
X613154D01*
Y68678D01*
X610655D01*
X618152D02*
Y71177D01*
X620652D01*
Y68678D01*
X618152D01*
X620652Y96169D02*
Y103666D01*
X618152Y106166D01*
X615653Y103666D01*
Y98668D01*
X613154Y96169D01*
X610655Y98668D01*
Y106166D01*
Y111164D02*
X618152D01*
X620652Y113663D01*
Y121161D01*
X610655D01*
X625650Y126159D02*
X610655D01*
Y133657D01*
X613154Y136156D01*
X618152D01*
X620652Y133657D01*
Y126159D01*
X625650Y141154D02*
X610655D01*
Y148652D01*
X613154Y151151D01*
X618152D01*
X620652Y148652D01*
Y141154D01*
Y158649D02*
Y163647D01*
X618152Y166146D01*
X613154D01*
X610655Y163647D01*
Y158649D01*
X613154Y156149D01*
X618152D01*
X620652Y158649D01*
X610655Y171145D02*
X620652D01*
X615653D01*
X613154Y173644D01*
X610655Y176143D01*
Y178642D01*
X608156Y188639D02*
X610655D01*
Y186140D01*
Y191138D01*
Y188639D01*
X618152D01*
X620652Y191138D01*
X615653Y206133D02*
X613154D01*
Y203634D01*
X615653D01*
Y206133D01*
X613154Y208632D01*
X608156D01*
X605657Y206133D01*
Y201135D01*
X608156Y198636D01*
X618152D01*
X620652Y201135D01*
Y208632D01*
Y213631D02*
X605657D01*
X615653D02*
X610655Y221128D01*
X615653Y213631D02*
X620652Y221128D01*
Y228626D02*
Y236123D01*
X618152Y238623D01*
X615653Y236123D01*
Y231125D01*
X613154Y228626D01*
X610655Y231125D01*
Y238623D01*
X605657Y243621D02*
X620652D01*
Y251119D01*
X618152Y253618D01*
X615653D01*
X613154D01*
X610655Y251119D01*
Y243621D01*
X620652Y261115D02*
Y266114D01*
X618152Y268613D01*
X613154D01*
X610655Y266114D01*
Y261115D01*
X613154Y258616D01*
X618152D01*
X620652Y261115D01*
X610655Y276110D02*
Y281109D01*
X613154Y283608D01*
X620652D01*
Y276110D01*
X618152Y273611D01*
X615653Y276110D01*
Y283608D01*
X610655Y288606D02*
X620652D01*
X615653D01*
X613154Y291106D01*
X610655Y293605D01*
Y296104D01*
X605657Y313598D02*
X620652D01*
Y306101D01*
X618152Y303602D01*
X613154D01*
X610655Y306101D01*
Y313598D01*
X620652Y318597D02*
Y326094D01*
X618152Y328593D01*
X615653Y326094D01*
Y321096D01*
X613154Y318597D01*
X610655Y321096D01*
Y328593D01*
X620652Y333592D02*
X618152D01*
Y336091D01*
X620652D01*
Y333592D01*
X610655Y356085D02*
Y348587D01*
X613154Y346088D01*
X618152D01*
X620652Y348587D01*
Y356085D01*
Y363582D02*
Y368581D01*
X618152Y371080D01*
X613154D01*
X610655Y368581D01*
Y363582D01*
X613154Y361083D01*
X618152D01*
X620652Y363582D01*
Y376078D02*
X610655D01*
Y378577D01*
X613154Y381077D01*
X620652D01*
X613154D01*
X610655Y383576D01*
X613154Y386075D01*
X620652D01*
D72*
X566633Y24812D02*
X576630D01*
X579962Y28144D01*
X576630Y31477D01*
X579962Y34809D01*
X576630Y38141D01*
X566633D01*
Y44805D02*
X576630D01*
X579962Y48138D01*
X576630Y51470D01*
X579962Y54802D01*
X576630Y58135D01*
X566633D01*
Y64799D02*
X576630D01*
X579962Y68131D01*
X576630Y71464D01*
X579962Y74796D01*
X576630Y78128D01*
X566633D01*
X579962Y84793D02*
X576630D01*
Y88125D01*
X579962D01*
Y84793D01*
Y101454D02*
X559968D01*
X573298D02*
X566633Y111451D01*
X573298Y101454D02*
X579962Y111451D01*
Y121447D02*
Y131444D01*
X576630Y134776D01*
X573298Y131444D01*
Y124780D01*
X569965Y121447D01*
X566633Y124780D01*
Y134776D01*
X559968Y141441D02*
X579962D01*
Y151438D01*
X576630Y154770D01*
X573298D01*
X569965D01*
X566633Y151438D01*
Y141441D01*
X579962Y164767D02*
Y171431D01*
X576630Y174764D01*
X569965D01*
X566633Y171431D01*
Y164767D01*
X569965Y161435D01*
X576630D01*
X579962Y164767D01*
X566633Y184760D02*
Y191425D01*
X569965Y194757D01*
X579962D01*
Y184760D01*
X576630Y181428D01*
X573298Y184760D01*
Y194757D01*
X566633Y201422D02*
X579962D01*
X573298D01*
X569965Y204754D01*
X566633Y208086D01*
Y211418D01*
X559968Y234744D02*
X579962D01*
Y224748D01*
X576630Y221415D01*
X569965D01*
X566633Y224748D01*
Y234744D01*
X579962Y241409D02*
Y251406D01*
X576630Y254738D01*
X573298Y251406D01*
Y244741D01*
X569965Y241409D01*
X566633Y244741D01*
Y254738D01*
X579962Y261402D02*
X576630D01*
Y264735D01*
X579962D01*
Y261402D01*
X566633Y291393D02*
Y281396D01*
X569965Y278064D01*
X576630D01*
X579962Y281396D01*
Y291393D01*
Y301390D02*
Y308054D01*
X576630Y311386D01*
X569965D01*
X566633Y308054D01*
Y301390D01*
X569965Y298057D01*
X576630D01*
X579962Y301390D01*
Y318051D02*
X566633D01*
Y321383D01*
X569965Y324715D01*
X579962D01*
X569965D01*
X566633Y328048D01*
X569965Y331380D01*
X579962D01*
X79676Y445872D02*
X86341D01*
X83008D01*
Y425878D01*
X79676D01*
X86341D01*
X99670D02*
X106334D01*
X109666Y429210D01*
Y435875D01*
X106334Y439207D01*
X99670D01*
X96337Y435875D01*
Y429210D01*
X99670Y425878D01*
X119663Y442539D02*
Y439207D01*
X116331D01*
X122995D01*
X119663D01*
Y429210D01*
X122995Y425878D01*
X152986Y445872D02*
Y425878D01*
X162983D01*
X166315Y429210D01*
Y432542D01*
X162983Y435875D01*
X152986D01*
X162983D01*
X166315Y439207D01*
Y442539D01*
X162983Y445872D01*
X152986D01*
X176311Y425878D02*
X182976D01*
X186308Y429210D01*
Y435875D01*
X182976Y439207D01*
X176311D01*
X172979Y435875D01*
Y429210D01*
X176311Y425878D01*
X196305Y439207D02*
X202970D01*
X206302Y435875D01*
Y425878D01*
X196305D01*
X192973Y429210D01*
X196305Y432542D01*
X206302D01*
X212966Y439207D02*
Y425878D01*
Y432542D01*
X216299Y435875D01*
X219631Y439207D01*
X222963D01*
X246289Y445872D02*
Y425878D01*
X236292D01*
X232960Y429210D01*
Y435875D01*
X236292Y439207D01*
X246289D01*
X286276Y445872D02*
X272947D01*
Y425878D01*
X286276D01*
X272947Y435875D02*
X279611D01*
X306270Y442539D02*
X302937Y445872D01*
X296273D01*
X292941Y442539D01*
Y439207D01*
X296273Y435875D01*
X302937D01*
X306270Y432542D01*
Y429210D01*
X302937Y425878D01*
X296273D01*
X292941Y429210D01*
X312934Y425878D02*
Y445872D01*
X322931D01*
X326263Y442539D01*
Y435875D01*
X322931Y432542D01*
X312934D01*
X332928Y442539D02*
X336260Y445872D01*
X342924D01*
X346257Y442539D01*
Y439207D01*
X342924Y435875D01*
X346257Y432542D01*
Y429210D01*
X342924Y425878D01*
X336260D01*
X332928Y429210D01*
Y432542D01*
X336260Y435875D01*
X332928Y439207D01*
Y442539D01*
X336260Y435875D02*
X342924D01*
X366250Y425878D02*
X352921D01*
X366250Y439207D01*
Y442539D01*
X362918Y445872D01*
X356254D01*
X352921Y442539D01*
X386244Y445872D02*
X379579Y442539D01*
X372915Y435875D01*
Y429210D01*
X376247Y425878D01*
X382912D01*
X386244Y429210D01*
Y432542D01*
X382912Y435875D01*
X372915D01*
X406237Y445872D02*
X399573Y442539D01*
X392908Y435875D01*
Y429210D01*
X396241Y425878D01*
X402905D01*
X406237Y429210D01*
Y432542D01*
X402905Y435875D01*
X392908D01*
X432896Y445872D02*
Y432542D01*
X439560Y425878D01*
X446225Y432542D01*
Y445872D01*
X452889Y425878D02*
X459554D01*
X456221D01*
Y445872D01*
X452889Y442539D01*
D82*
X1139162Y-319024D02*
Y-75184D01*
X854763Y-136144D02*
X1139162D01*
X854763Y-166624D02*
X1139162D01*
X854763Y-197104D02*
X1139162D01*
X854763Y-227584D02*
X1139162D01*
X854763Y-258064D02*
X1139162D01*
X854763Y-288544D02*
X1139162D01*
X854763Y-319024D02*
X1139162D01*
X854763D02*
Y-75184D01*
X710018Y-136144D02*
X854763D01*
X710018Y-166624D02*
X854763D01*
X710018Y-197104D02*
X854763D01*
X710018Y-227584D02*
X854763D01*
X710018Y-258064D02*
X854763D01*
X710018Y-288544D02*
X854763D01*
X710018Y-319024D02*
X854763D01*
X710018D02*
Y-75184D01*
X544960Y-136144D02*
X710018D01*
X544960Y-166624D02*
X710018D01*
X544960Y-197104D02*
X710018D01*
X544960Y-227584D02*
X710018D01*
X544960Y-258064D02*
X710018D01*
X544960Y-288544D02*
X710018D01*
X544960Y-319024D02*
X710018D01*
X544960D02*
Y-75184D01*
X326579Y-136144D02*
X544960D01*
X326579Y-166624D02*
X544960D01*
X326579Y-197104D02*
X544960D01*
X326579Y-227584D02*
X544960D01*
X326579Y-258064D02*
X544960D01*
X326579Y-288544D02*
X544960D01*
X326579Y-319024D02*
X544960D01*
X326579D02*
Y-75184D01*
X90424Y-136144D02*
X326579D01*
X90424Y-166624D02*
X326579D01*
X90424Y-197104D02*
X326579D01*
X90424Y-227584D02*
X326579D01*
X90424Y-258064D02*
X326579D01*
X90424Y-288544D02*
X326579D01*
X90424Y-319024D02*
X326579D01*
X90424D02*
Y-75184D01*
X-13694Y-136144D02*
X90424D01*
X-13694Y-166624D02*
X90424D01*
X-13694Y-197104D02*
X90424D01*
X-13694Y-227584D02*
X90424D01*
X-13694Y-258064D02*
X90424D01*
X-13694Y-288544D02*
X90424D01*
X-13694Y-319024D02*
X90424D01*
X-13694D02*
Y-75184D01*
X1139162D01*
X-13694Y-105664D02*
X1139162D01*
D83*
X854763Y-115744D02*
X864842Y-105664D01*
X854763Y-130983D02*
X880082Y-105664D01*
X864842Y-136144D02*
X895322Y-105664D01*
X880082Y-136144D02*
X910562Y-105664D01*
X895322Y-136144D02*
X925802Y-105664D01*
X910562Y-136144D02*
X941042Y-105664D01*
X925802Y-136144D02*
X956282Y-105664D01*
X941042Y-136144D02*
X971522Y-105664D01*
X956282Y-136144D02*
X986762Y-105664D01*
X971522Y-136144D02*
X1002002Y-105664D01*
X986762Y-136144D02*
X1017242Y-105664D01*
X1002002Y-136144D02*
X1032482Y-105664D01*
X1017242Y-136144D02*
X1047722Y-105664D01*
X1032482Y-136144D02*
X1062962Y-105664D01*
X1047722Y-136144D02*
X1078202Y-105664D01*
X1062962Y-136144D02*
X1093442Y-105664D01*
X1078202Y-136144D02*
X1108682Y-105664D01*
X1093442Y-136144D02*
X1123922Y-105664D01*
X1108682Y-136144D02*
X1139162Y-105664D01*
X1123922Y-136144D02*
X1139162Y-120904D01*
X854763Y-146223D02*
X864842Y-136144D01*
X854763Y-161464D02*
X880082Y-136144D01*
X864842Y-166624D02*
X895322Y-136144D01*
X880082Y-166624D02*
X910562Y-136144D01*
X895322Y-166624D02*
X925802Y-136144D01*
X910562Y-166624D02*
X941042Y-136144D01*
X925802Y-166624D02*
X956282Y-136144D01*
X941042Y-166624D02*
X971522Y-136144D01*
X956282Y-166624D02*
X986762Y-136144D01*
X971522Y-166624D02*
X1002002Y-136144D01*
X986762Y-166624D02*
X1017242Y-136144D01*
X1002002Y-166624D02*
X1032482Y-136144D01*
X1017242Y-166624D02*
X1047722Y-136144D01*
X1032482Y-166624D02*
X1062962Y-136144D01*
X1047722Y-166624D02*
X1078202Y-136144D01*
X1062962Y-166624D02*
X1093442Y-136144D01*
X1078202Y-166624D02*
X1108682Y-136144D01*
X1093442Y-166624D02*
X1123922Y-136144D01*
X1108682Y-166624D02*
X1139162Y-136144D01*
X1123922Y-166624D02*
X1139162Y-151384D01*
X854763Y-176703D02*
X864842Y-166624D01*
X854763Y-191943D02*
X880082Y-166624D01*
X864842Y-197104D02*
X895322Y-166624D01*
X880082Y-197104D02*
X910562Y-166624D01*
X895322Y-197104D02*
X925802Y-166624D01*
X910562Y-197104D02*
X941042Y-166624D01*
X925802Y-197104D02*
X956282Y-166624D01*
X941042Y-197104D02*
X971522Y-166624D01*
X956282Y-197104D02*
X986762Y-166624D01*
X971522Y-197104D02*
X1002002Y-166624D01*
X986762Y-197104D02*
X1017242Y-166624D01*
X1002002Y-197104D02*
X1032482Y-166624D01*
X1017242Y-197104D02*
X1047722Y-166624D01*
X1032482Y-197104D02*
X1062962Y-166624D01*
X1047722Y-197104D02*
X1078202Y-166624D01*
X1062962Y-197104D02*
X1093442Y-166624D01*
X1078202Y-197104D02*
X1108682Y-166624D01*
X1093442Y-197104D02*
X1123922Y-166624D01*
X1108682Y-197104D02*
X1139162Y-166624D01*
X1123922Y-197104D02*
X1139162Y-181864D01*
X854763Y-207183D02*
X864842Y-197104D01*
X854763Y-222423D02*
X880082Y-197104D01*
X864842Y-227584D02*
X895322Y-197104D01*
X880082Y-227584D02*
X910562Y-197104D01*
X895322Y-227584D02*
X925802Y-197104D01*
X910562Y-227584D02*
X941042Y-197104D01*
X925802Y-227584D02*
X956282Y-197104D01*
X941042Y-227584D02*
X971522Y-197104D01*
X956282Y-227584D02*
X986762Y-197104D01*
X971522Y-227584D02*
X1002002Y-197104D01*
X986762Y-227584D02*
X1017242Y-197104D01*
X1002002Y-227584D02*
X1032482Y-197104D01*
X1017242Y-227584D02*
X1047722Y-197104D01*
X1032482Y-227584D02*
X1062962Y-197104D01*
X1047722Y-227584D02*
X1078202Y-197104D01*
X1062962Y-227584D02*
X1093442Y-197104D01*
X1078202Y-227584D02*
X1108682Y-197104D01*
X1093442Y-227584D02*
X1123922Y-197104D01*
X1108682Y-227584D02*
X1139162Y-197104D01*
X1123922Y-227584D02*
X1139162Y-212344D01*
X854763Y-237663D02*
X864842Y-227584D01*
X854763Y-252903D02*
X880082Y-227584D01*
X864842Y-258064D02*
X895322Y-227584D01*
X880082Y-258064D02*
X910562Y-227584D01*
X895322Y-258064D02*
X925802Y-227584D01*
X910562Y-258064D02*
X941042Y-227584D01*
X925802Y-258064D02*
X956282Y-227584D01*
X941042Y-258064D02*
X971522Y-227584D01*
X956282Y-258064D02*
X986762Y-227584D01*
X971522Y-258064D02*
X1002002Y-227584D01*
X986762Y-258064D02*
X1017242Y-227584D01*
X1002002Y-258064D02*
X1032482Y-227584D01*
X1017242Y-258064D02*
X1047722Y-227584D01*
X1032482Y-258064D02*
X1062962Y-227584D01*
X1047722Y-258064D02*
X1078202Y-227584D01*
X1062962Y-258064D02*
X1093442Y-227584D01*
X1078202Y-258064D02*
X1108682Y-227584D01*
X1093442Y-258064D02*
X1123922Y-227584D01*
X1108682Y-258064D02*
X1139162Y-227584D01*
X1123922Y-258064D02*
X1139162Y-242824D01*
X854763Y-268144D02*
X864842Y-258064D01*
X854763Y-283384D02*
X880082Y-258064D01*
X864842Y-288544D02*
X895322Y-258064D01*
X880082Y-288544D02*
X910562Y-258064D01*
X895322Y-288544D02*
X925802Y-258064D01*
X910562Y-288544D02*
X941042Y-258064D01*
X925802Y-288544D02*
X956282Y-258064D01*
X941042Y-288544D02*
X971522Y-258064D01*
X956282Y-288544D02*
X986762Y-258064D01*
X971522Y-288544D02*
X1002002Y-258064D01*
X986762Y-288544D02*
X1017242Y-258064D01*
X1002002Y-288544D02*
X1032482Y-258064D01*
X1017242Y-288544D02*
X1047722Y-258064D01*
X1032482Y-288544D02*
X1062962Y-258064D01*
X1047722Y-288544D02*
X1078202Y-258064D01*
X1062962Y-288544D02*
X1093442Y-258064D01*
X1078202Y-288544D02*
X1108682Y-258064D01*
X1093442Y-288544D02*
X1123922Y-258064D01*
X1108682Y-288544D02*
X1139162Y-258064D01*
X1123922Y-288544D02*
X1139162Y-273304D01*
X854763Y-298624D02*
X864842Y-288544D01*
X854763Y-313864D02*
X880082Y-288544D01*
X864842Y-319024D02*
X895322Y-288544D01*
X880082Y-319024D02*
X910562Y-288544D01*
X895322Y-319024D02*
X925802Y-288544D01*
X910562Y-319024D02*
X941042Y-288544D01*
X925802Y-319024D02*
X956282Y-288544D01*
X941042Y-319024D02*
X971522Y-288544D01*
X956282Y-319024D02*
X986762Y-288544D01*
X971522Y-319024D02*
X1002002Y-288544D01*
X986762Y-319024D02*
X1017242Y-288544D01*
X1002002Y-319024D02*
X1032482Y-288544D01*
X1017242Y-319024D02*
X1047722Y-288544D01*
X1032482Y-319024D02*
X1062962Y-288544D01*
X1047722Y-319024D02*
X1078202Y-288544D01*
X1062962Y-319024D02*
X1093442Y-288544D01*
X1078202Y-319024D02*
X1108682Y-288544D01*
X1093442Y-319024D02*
X1123922Y-288544D01*
X1108682Y-319024D02*
X1139162Y-288544D01*
X1123922Y-319024D02*
X1139162Y-303784D01*
D84*
X-7732Y-29304D02*
Y-59294D01*
X7263D01*
X12262Y-54296D01*
Y-49297D01*
X7263Y-44299D01*
X-7732D01*
X7263D01*
X12262Y-39300D01*
Y-34302D01*
X7263Y-29304D01*
X-7732D01*
X27257Y-59294D02*
X37253D01*
X42252Y-54296D01*
Y-44299D01*
X37253Y-39300D01*
X27257D01*
X22258Y-44299D01*
Y-54296D01*
X27257Y-59294D01*
X57247Y-39300D02*
X67244D01*
X72242Y-44299D01*
Y-59294D01*
X57247D01*
X52249Y-54296D01*
X57247Y-49297D01*
X72242D01*
X82239Y-39300D02*
Y-59294D01*
Y-49297D01*
X87237Y-44299D01*
X92236Y-39300D01*
X97234D01*
X132223Y-29304D02*
Y-59294D01*
X117227D01*
X112229Y-54296D01*
Y-44299D01*
X117227Y-39300D01*
X132223D01*
X172210Y-29304D02*
X182206D01*
X177208D01*
Y-59294D01*
X172210D01*
X182206D01*
X197202D02*
Y-39300D01*
X212197D01*
X217195Y-44299D01*
Y-59294D01*
X232190D02*
Y-34302D01*
Y-44299D01*
X227192D01*
X237189D01*
X232190D01*
Y-34302D01*
X237189Y-29304D01*
X257182Y-59294D02*
X267179D01*
X272177Y-54296D01*
Y-44299D01*
X267179Y-39300D01*
X257182D01*
X252184Y-44299D01*
Y-54296D01*
X257182Y-59294D01*
X282174D02*
X297169D01*
X302168Y-54296D01*
X297169Y-49297D01*
X287173D01*
X282174Y-44299D01*
X287173Y-39300D01*
X302168D01*
X312164D02*
X317163D01*
Y-44299D01*
X312164D01*
Y-39300D01*
Y-54296D02*
X317163D01*
Y-59294D01*
X312164D01*
Y-54296D01*
M02*
